<svg xmlns="http://www.w3.org/2000/svg" id="Capa_1" data-name="Capa 1" viewBox="0 0 587.06 745.64"><defs><style>.cls-1{fill:#ffc92e;}.cls-2{fill:#ffcb63;}</style></defs><path class="cls-1" d="M458.74,606.19V572.25c0-.5,0-1,0-1.49a1.42,1.42,0,0,0-1.56-1.61h-1.28l-36.49,0c-3.42,0-3.43,0-3.43,3.4v67.66c0,.43,0,.86,0,1.28a1.57,1.57,0,0,1-1.58,1.86,12,12,0,0,1-1.7.09H392.62a10.41,10.41,0,0,1-1.48-.09,1.24,1.24,0,0,1-1.21-1.25,27.51,27.51,0,0,1-.22-3.83c.27-3,0-6,0-8.92q0-72.57,0-145.14c0-3.47.2-6.94,0-10.42-.11-2.05.1-2.22,2.13-2.22q13.76,0,27.53.06c2.29,0,2.61.43,2.43,2.65-.1,1.34-.1,2.7-.21,4-1.32,17.18-.69,34.39-.88,51.59a6.43,6.43,0,0,0,1.34,4.56,3.21,3.21,0,0,1,.7,2.58c-.08.85-.26,1.69-.3,2.54-.13,3,.21,3.35,3.38,3.53,2.61.15,3.23-.59,4.07-3.3a8,8,0,0,0,.63-3.1,2.55,2.55,0,0,1,.87-1.87,4.42,4.42,0,0,0,.93-3c0-10.74,0-21.49,0-32.23a38.42,38.42,0,0,1,.33-4.66,138.89,138.89,0,0,0,1.46-18.45,6.86,6.86,0,0,1,.15-1.69,1.93,1.93,0,0,1,3.4-1,6.09,6.09,0,0,1,1.8,3.29,45.44,45.44,0,0,1,.67,8.7c.13,4.19.44,8.37.69,12.55s.09,8.26.46,12.35c.41,4.7.15,9.38.31,14.06a4.28,4.28,0,0,0,.54,2.66c.45.61,0,1.22-.1,1.83-.19.94-.25,1.9.81,2.4a1.8,1.8,0,0,1,1,1.52c.23,1.55.9,3,1.16,4.53.45,2.63,1.53,3.42,4.24,3.43a22.93,22.93,0,0,0,3-.1,2.28,2.28,0,0,0,1.89-3.55,8.22,8.22,0,0,1-1.32-4.39,2.4,2.4,0,0,1,1-2.2,2.52,2.52,0,0,0,1.06-2.41c0-1,0-2,0-3,0-16.58,0-33.16,0-49.73,0-4.89-.38-4.19,4.27-4.26,7.75-.11,15.51,0,23.26,0,2.18,0,2.29.11,2.29,2.3q0,19.32,0,38.64c0,3.7,0,7.39,0,11.09,0,1.49-.19,3,.63,4.37a1.59,1.59,0,0,1-.07,1.64,6.11,6.11,0,0,0-.57,3.31V638.76c0,.92-.05,1.85,0,2.77a1.61,1.61,0,0,1-1.64,1.82,12.43,12.43,0,0,1-1.49,0H461.48c-.43,0-.86,0-1.28,0a1.47,1.47,0,0,1-1.44-1.55c0-.5,0-1,0-1.49V606.19Z" transform="translate(-11.9 -19.43)"></path><path class="cls-1" d="M175.32,387.76c0-23,0-46,0-68.93a46.15,46.15,0,0,1,1-8.43,21.25,21.25,0,0,1,3.92-8.14c3.37-4.79,8.2-7.53,13.29-9.93a44.81,44.81,0,0,1,13.19-3.67,107.08,107.08,0,0,1,20.64-.59,53.13,53.13,0,0,1,10.1,1.38c8,2,15.49,5.1,21,11.6a23.11,23.11,0,0,1,4.74,9.32c1.29,5,1.21,10,1.21,15q0,66.27,0,132.54c0,3.37,0,3.38-3.44,3.38H241.55c-.5,0-1,0-1.49,0-1.47-.1-1.59-.18-1.61-1.62,0-2.13,0-4.27,0-6.4q0-32.34,0-64.67c0-2.85,0-2.83-2.91-2.19-2.49.55-4.81,1.6-7.27,2.22-2.94.74-5.67,2.14-8.7,2.63-1,.16-1.95.73-3,1-2.71.71-5.33,1.78-8,2.55-2.91.83-4.93,2.85-6.65,5.08-1.08,1.4-.95,3.38-1,5.15-.16,2.7.24,5.39.25,8.08q.09,19.11,0,38.21c0,2.83-.35,5.67-.28,8.51,0,1.13-.5,1.48-1.55,1.48-7.39,0-14.79,0-22.19,0-1.51,0-1.73-.26-1.77-1.75,0-1.85,0-3.7,0-5.55V387.76Zm25.64-42c0,4,0,8,0,11.94s-.08,7.95-.09,11.93c0,2.74,1.31,2.83,3.31,2.19,2.4-.77,4.77-1.64,7.16-2.44s5.1-1.63,7.62-2.51c3.2-1.12,6.47-2,9.66-3.14a29.76,29.76,0,0,0,5.27-2.12,8,8,0,0,0,3.67-4,20.2,20.2,0,0,0,.87-7.32q0-14.49,0-29a8.88,8.88,0,0,0-4.64-8.05,23.42,23.42,0,0,0-12.16-3.15c-3.89,0-7.73-.06-11.58,1.11a13.36,13.36,0,0,0-7.75,5.34c-1.29,1.94-1.21,4.22-1.25,6.38C200.87,330.52,201.11,338.13,201,345.73Z" transform="translate(-11.9 -19.43)"></path><path class="cls-1" d="M472.35,384.25a7,7,0,0,1,2.37,2.27c1.81,2.88,4.09,5.42,5.81,8.36a2,2,0,0,0,.58.61c.48.34,1,.66,1.54.17s.15-.94-.08-1.36a61.17,61.17,0,0,0-4.57-6.91c-.8-1.1-1.34-2.33-2.07-3.45a3.56,3.56,0,0,1-.41-2.28,5,5,0,0,0-.91-3.22c-1.21-1.82-2.38-3.68-3.61-5.49s-3.3-2.25-4.85-.78a3.56,3.56,0,0,0-.52,3.76c1.15,3.05,1.17,5.95-.81,8.79a106.24,106.24,0,0,0-6,9.52c-1.46,2.66-3.18,5.18-4.88,7.7a13.05,13.05,0,0,1-1.44,2.34,7.6,7.6,0,0,1-5.58,2.13c-1.41,0-2.79-.44-4.22-.44-.68,0-.94-.51-1.08-1.12A11,11,0,0,1,442,399a13.22,13.22,0,0,0-.12-9.11,4,4,0,0,0-2.6-2.32,11.43,11.43,0,0,0-6.92-.1,2.77,2.77,0,0,0-1.81,1.4c-1.63,3.12-2.43,6.27-.85,9.74A4.72,4.72,0,0,1,429,404a5.26,5.26,0,0,0-.64.85c-1.39,2.23-3.93,2.18-5.17-.12-.23-.43-.28-1-.51-1.4-1.81-3.37-3.4-6.86-4.92-10.37-1.13-2.64-3-4.8-4.56-7.12a11.51,11.51,0,0,1-2.22-5.64,9.75,9.75,0,0,0-1.59-5,2.18,2.18,0,0,1,0-2.41,2.67,2.67,0,0,0-.13-2.65c-.6-1-1.63-1.14-2.13-.11-1.49,3-3.37,6-2.88,9.6a3.62,3.62,0,0,1-1,3.11c-.94,1-.81,1,.35,2a5.14,5.14,0,0,1,1.6,3.36c.43,2.48.9,5,1.52,7.42a65.92,65.92,0,0,0,2.08,7.07,77.68,77.68,0,0,0,5.55,11.83c1.54,2.61,3.07,5.23,4.72,7.78a37,37,0,0,0,2.78,3.49,3.71,3.71,0,0,1,.9,2.55c0,2.13-.1,4.27,0,6.4.06,1.11-.63,1.86-.92,2.79a30,30,0,0,1-4.69,9.67c-.92,1.17-2,2.23-3,3.35a9.41,9.41,0,0,0-2.61,6.51,8.24,8.24,0,0,1-.6,3.54,1.54,1.54,0,0,1-1.6,1.11q-9.06-.09-18.14-.1c-1.11,0-1.52-.54-1.51-1.58,0-1.7,0-3.41,0-5.12q0-16.75,0-33.51a6.68,6.68,0,0,1,.54-2.65c1.24-3,2.27-6.05,3.38-9.08.17-.46.49-1-.18-1.26a1.06,1.06,0,0,0-1.42.55c-.78,1.3-.85,3-2.32,4.2v-2.83q0-58.8,0-117.62c0-2.86,0-2.87,2.79-2.87h20.27c.57,0,1.14,0,1.71.05.9,0,1.48.38,1.51,1.39s.21,2.13.21,3.19c0,18.5.08,37-.06,55.5,0,3.32.23,6.65-.11,10-.36,3.63.09,3.89,3.63,3.88q18,0,36.08,0c3,0,3-.05,3-3.11q0-34.24,0-68.5c0-2.23.13-2.35,2.23-2.35l20.71,0h.64c2.33,0,2.35,0,2.35,2.41q0,29.46,0,58.92c0,12,0,23.91,0,35.86,0,2.91.61,5.81,0,8.72-.08.41.09,1-.34,1.17-1.71.66-1,1.69-.5,2.71a9.33,9.33,0,0,1,.88,5.78,9.48,9.48,0,0,0,0,1.07v51.84c0,3.25,0,3.29-3.34,3.3-4.77,0-9.54.06-14.3.07-1.88,0-2,0-2.5-1.85a93.83,93.83,0,0,1-2.76-10.89c-.37-2.43-1.26-4.72-4-5.82-1.17-.47-2.06-1.64-3.41-2-.72-.21-.66-1-.67-1.65,0-2.07-.05-4.13-.08-6.19a29.67,29.67,0,0,0-.3-4.89,6.37,6.37,0,0,1,1.22-5c2.33-3.26,4.4-6.71,6.67-10,1.68-2.45,3.49-4.8,5.29-7.16a22.84,22.84,0,0,0,4-8.29c.93-3.56.6-7.19,1.14-10.75C471.81,386.12,471.5,385.15,472.35,384.25Z" transform="translate(-11.9 -19.43)"></path><path class="cls-1" d="M571.5,542.77q0-34.15,0-68.31c0-2.94,0-2.95,2.92-3l21.34,0h.43c1.79.07,2.15.38,1.91,2.2a49.11,49.11,0,0,0-.19,7.67c.48,20.06.11,40.12.17,60.18,0,3.76-.27,7.53-.18,11.3.36,15.08.23,30.16.19,45.24,0,5.67.17,11.36-.31,17-.54,6.37-2.57,12.15-7.07,16.86a27.72,27.72,0,0,1-7.36,5.33,45.92,45.92,0,0,1-9.71,4.1c-2.16.54-4.39,1-6.62,1.35-7.5,1.3-15,.67-22.55.75a38.23,38.23,0,0,1-10-1.53c-1.5-.38-3.05-.46-4.55-1a42.73,42.73,0,0,1-14.28-7.71,23.09,23.09,0,0,1-7-10.24,29.08,29.08,0,0,1-1.54-9.18q0-66.49,0-133c0-2.42,0-4.84,0-7.26,0-1.88.25-2.1,2.11-2.1q11.1,0,22.19,0c2,0,2.09.1,2.1,2.24q0,6.74,0,13.45,0,60.51,0,121a37.54,37.54,0,0,0,.66,5.71,4.26,4.26,0,0,0,1.16,2.23,11.82,11.82,0,0,0,5.77,3.77c1,.25,1.77.81,2.77,1a38.75,38.75,0,0,0,17.31-.14,17.56,17.56,0,0,0,7.66-3.55,7.43,7.43,0,0,0,2.73-5.77q0-13.12,0-26.25V542.77Z" transform="translate(-11.9 -19.43)"></path><path class="cls-1" d="M507.05,361.68V293.17c0-3.57,0-3.57,3.48-3.58l20.06,0c.42,0,.85,0,1.28,0,1.36.09,1.51.25,1.58,1.69,0,.36,0,.71,0,1.07q0,67,0,134a20.29,20.29,0,0,0,.79,5.68,8.64,8.64,0,0,0,4.25,4.86,28,28,0,0,0,6.14,2.2c3.66,1.1,7.36.91,11,.62,4.19-.33,8.4-1.14,12-3.67a8.48,8.48,0,0,0,3.94-7.5q-.07-67,0-134c0-1.07,0-2.14,0-3.2.06-1.48.27-1.66,1.78-1.76h.43c7.4,0,14.79,0,22.19.06,2.16,0,2.4.27,2.13,2.32a23,23,0,0,0-.14,3q0,67.54,0,135.1a20,20,0,0,1-.66,5.68c-.49,1.67-.43,3.45-1,5.18a24.57,24.57,0,0,1-7,10.45,23.1,23.1,0,0,1-6.25,4.31c-2.35,1.06-4.66,2.24-7.13,3.09a37.34,37.34,0,0,1-7.17,1.76c-3.08.41-6.1,1.27-9.27,1.2-5-.12-9.95-.08-14.93-.07-2.8,0-5.45-.86-8.2-1.16-1.33-.15-2.6-.7-4-.61-1.14.07-1.91-.84-2.92-1.17-6.18-2-11.87-4.92-16.22-10a22.06,22.06,0,0,1-4.94-9.5,47.62,47.62,0,0,1-1.16-11V361.68Z" transform="translate(-11.9 -19.43)"></path><path class="cls-1" d="M18.31,571.61q0-34,0-68.07a32.71,32.71,0,0,1,2.17-11.84,20.41,20.41,0,0,1,5.88-8,30,30,0,0,1,7.74-5.2c3.15-1.34,6.13-3.11,9.64-3.6a35.66,35.66,0,0,0,4.33-1,28.18,28.18,0,0,1,7.19-.71c2.55,0,5.08-.49,7.65-.37,4,.19,8.09.27,12.13.45a28.26,28.26,0,0,1,5,.94,44.36,44.36,0,0,1,18,8.11,23.22,23.22,0,0,1,8.24,12.22,33.37,33.37,0,0,1,1.12,9c.11,12.09,0,24.19.06,36.28a28.07,28.07,0,0,1-5.09,16.29c-3.36,5-8.12,8-13.37,10.36A62.37,62.37,0,0,1,78,570.21c-2.4.58-4.71,1.54-7.07,2.29-1.6.51-3.24.93-4.85,1.44-2.28.72-4.54,1.5-6.82,2.22-2.69.86-5.37,1.71-8.08,2.51a10.69,10.69,0,0,0-7.08,9.39q0,26.15,0,52.28c0,.57,0,1.14,0,1.71,0,2.34,0,2.35-2.4,2.35H20.56c-2,0-2.17-.15-2.24-2.18s0-4.26,0-6.4V571.61Zm25.5-41.54h0v20c0,1.43,0,2.85,0,4.27.08,1.66.73,2.24,2.31,1.73,2.46-.79,5.11-1,7.42-2.24a3.17,3.17,0,0,1,1-.38c3-.49,5.72-1.9,8.61-2.73,2.29-.66,4.57-1.34,6.84-2.07a41.27,41.27,0,0,0,5.37-1.92c1.42-.69,3.24-.94,4.1-2.45,1.12-2,2.32-4,2.31-6.42-.06-11,0-22,0-33.06a3,3,0,0,0-.13-1.46c-1.12-1.88-1.71-4-4-5.21A28.6,28.6,0,0,0,69,495a43.69,43.69,0,0,0-8.93-.3,27.23,27.23,0,0,0-5.28.48A41.84,41.84,0,0,0,50,496.79a8.41,8.41,0,0,0-3.3,2.13,11.85,11.85,0,0,0-2.9,7.9C43.77,514.57,43.81,522.32,43.81,530.07Z" transform="translate(-11.9 -19.43)"></path><path class="cls-1" d="M284.13,373.72q0-28,0-55.92a37.11,37.11,0,0,1,1.35-8.37,19.54,19.54,0,0,1,1.66-4.51,25.24,25.24,0,0,1,10.6-10.64,41.86,41.86,0,0,1,6.39-3.19,64.33,64.33,0,0,1,10.16-2.76,83.91,83.91,0,0,1,15.07-1,111.85,111.85,0,0,1,14,.94,46.43,46.43,0,0,1,17.22,6.09A25.51,25.51,0,0,1,372.17,308a2.35,2.35,0,0,1,.2.6c0,3.33,1.36,6.52,1,9.92a44.51,44.51,0,0,0,0,5.54c0,1-.41,1.45-1.39,1.45l-2.34,0h-19c-.57,0-1.14,0-1.71,0a1.41,1.41,0,0,1-1.54-1.61c0-1.36,0-2.71,0-4.06-.28-4.92-2-6.29-6.3-8.42-4.8-2.37-10-2.12-15.21-1.91a26.21,26.21,0,0,0-6.73.78,14,14,0,0,0-7.31,4.82,6.49,6.49,0,0,0-1.36,3.95c0,1.28,0,2.56,0,3.84,0,34.72,0,69.44,0,104.16,0,4.49,2.12,7.17,5.83,9a20.56,20.56,0,0,0,8.13,2.09,46.73,46.73,0,0,0,11.28-.36,20.17,20.17,0,0,0,8.86-3.76,7.41,7.41,0,0,0,2.87-5.92c0-1.5.05-3,0-4.48a1.31,1.31,0,0,1,1.41-1.49c.36,0,.71,0,1.07,0l21.13,0h.85c1.08,0,1.56.46,1.51,1.55-.23,4.31.06,8.58-.68,12.94-.95,5.57-3.87,9.7-7.67,13.3-3.52,3.34-7.92,5.44-12.5,7.05a74.91,74.91,0,0,1-10.22,2.57,8.21,8.21,0,0,1-1.68.29c-5.11-.17-10.21.93-15.33.24a30.16,30.16,0,0,0-5.54-.14c-3,.17-5.75-.82-8.6-1.36a41.4,41.4,0,0,1-17.34-7.9A21.27,21.27,0,0,1,286,440.26,36.53,36.53,0,0,1,284.09,429C284.17,410.58,284.13,392.15,284.13,373.72Z" transform="translate(-11.9 -19.43)"></path><path class="cls-1" d="M175.32,558V503.31a37.1,37.1,0,0,1,.65-6.55,23,23,0,0,1,1.81-6,24.34,24.34,0,0,1,8.78-9.89,42,42,0,0,1,11.6-5.52,52.16,52.16,0,0,1,11.64-2.19c5.33-.25,10.65-.51,16-.27,2.76.12,5.52.32,8.28.51a21.67,21.67,0,0,1,4.11.95,57.5,57.5,0,0,1,7.45,2.37,41.47,41.47,0,0,1,10.22,5.93,21.47,21.47,0,0,1,7.38,11.13,47.65,47.65,0,0,1,1.57,14.11c-.07,2.25-.26,2.48-2.43,2.48q-10.67,0-21.34,0c-2.35,0-2.48-.16-2.49-2.59,0-1.07,0-2.14,0-3.2a7.33,7.33,0,0,0-3.83-6.65,20.71,20.71,0,0,0-8.66-3.13,58.6,58.6,0,0,0-14.44.25,13.71,13.71,0,0,0-8.68,5c-1.44,1.78-1.61,4.05-1.61,6.28q0,14.3,0,28.6,0,37,0,74.06a13.35,13.35,0,0,0,.93,5.6c1.34,3,4,4.33,6.88,5.23A37.85,37.85,0,0,0,224,621.1,25,25,0,0,0,234.08,618a8,8,0,0,0,4.43-7c.05-1.21,0-2.42,0-3.63,0-1.59.43-2,2-2.14a8,8,0,0,1,.85,0h20.7c2.46,0,2.64.24,2.71,2.68a46.6,46.6,0,0,1-.86,11.43,23,23,0,0,1-5,10.37,31.75,31.75,0,0,1-10,7.71,40.49,40.49,0,0,1-11.74,4.09c-3.27.5-6.54,1.41-9.92,1.14-2.07-.17-4.1.38-6.16.33-3.9-.11-7.84,0-11.7-.49-2.77-.36-5.58-.82-8.35-1.42a47.16,47.16,0,0,1-10.41-4,28.15,28.15,0,0,1-12.31-11,20,20,0,0,1-2.29-6.55c-1.42-7.36-.6-14.75-.7-22.12-.17-13.15-.05-26.32-.05-39.48Z" transform="translate(-11.9 -19.43)"></path><path class="cls-1" d="M284.93,557.74c0-18.28,0-36.56,0-54.84a39.07,39.07,0,0,1,.93-8.45,17.08,17.08,0,0,1,2.09-5,24.44,24.44,0,0,1,6.91-7.69,56.7,56.7,0,0,1,9.07-4.92c3.8-1.74,7.84-2.26,11.75-3.4a2.65,2.65,0,0,1,.63-.08c6.45-.33,12.91-.94,19.37-.43,2.55.2,5.1.31,7.65.45a28.17,28.17,0,0,1,3.92.91,48.36,48.36,0,0,1,11.92,4.26,29.87,29.87,0,0,1,11.13,9.6c1.66,2.31,2.34,5.09,3.05,7.84,1.05,4.06.84,8.17.83,12.29,0,1.9-.2,2.12-2.05,2.12q-11.1,0-22.19,0c-1.71,0-2-.3-2-2,0-1.21-.06-2.42,0-3.63.17-3.88-2.06-6.09-5.21-7.74-2.94-1.54-6.14-1.95-9.35-2.53-4.39-.78-8.68,0-12.9.69a12.45,12.45,0,0,0-8,4.91,7.5,7.5,0,0,0-1.45,4.58q-.06,5.76-.08,11.52,0,46.74,0,93.47c0,2.8.4,5.36,2.61,7.35a14.87,14.87,0,0,0,4.73,2.76c3.9,1.5,8,1.66,12.15,1.57,4.56-.11,9.05-.73,13.07-3.15,2.78-1.67,4.64-3.9,4.4-7.41-.09-1.27,0-2.56,0-3.84,0-.84.32-1.34,1.22-1.41s1.69-.23,2.54-.23c6.62,0,13.23,0,19.84,0a9.08,9.08,0,0,1,1.28,0,1.38,1.38,0,0,1,1.42,1.51c.05,5,0,10-1.39,15-1.3,4.72-4.26,8.08-7.6,11.26a30.15,30.15,0,0,1-9.79,5.77,34.05,34.05,0,0,1-7.2,2.41c-3.14.51-6.29,1-9.45,1.36-2.61.28-5.24-.05-7.86.39-2.18.36-4.4-.4-6.58-.27-4,.25-7.9-.69-11.84-1.12a30.46,30.46,0,0,1-6.65-2,42.65,42.65,0,0,1-9.13-4.39c-5-3.29-8.89-7.57-10.61-13.37a24.59,24.59,0,0,1-1.14-7.1c0-14.58,0-29.17,0-43.75C284.92,566.56,284.93,562.15,284.93,557.74Z" transform="translate(-11.9 -19.43)"></path><path class="cls-1" d="M412.39,139.39l.67.76a2,2,0,0,0,.53,1.72,11.67,11.67,0,0,1,2.84,7.18c0,1.69.66,2.29,2.55,2.68l.4.25c1,1.1,2.36,1.23,3.63,1.4,1.05.13,2.26.46,3.25-.38a4.35,4.35,0,0,1,2.12-.06,1.16,1.16,0,0,0,1.09.51,60.68,60.68,0,0,1,11.67,1.88,22.56,22.56,0,0,0,3.3.74c3.23.38,6.27,1.61,9.4,2.39,2.94.74,5.9,1.69,8.82,2.56,3.36,1,6.7,2.11,10,3.15,2.73.84,5.66,1.39,8,3.21a.64.64,0,0,0,.41.11c2.34-.08,4.07,1.66,6.33,2.06a20.62,20.62,0,0,1,4.82,2c3.1,1.46,6.17,3,9.24,4.48a28.21,28.21,0,0,1,8.26,5.69,2.8,2.8,0,0,0,2.74.7l1.23,0c.16.12.32.35.49.35a85.55,85.55,0,0,0,10.5,0,1.64,1.64,0,0,1,1.32.05c3.22,3.87,7.1,7.09,10.57,10.71,1.37,1.43,3.28,2.2,4.52,3.77,1,1.33,2.56,1.92,4,2.72,2,1.14,4.29.69,6.41,1.23,3,.75,6.12.79,8.81,2.53a2,2,0,0,0,.61.19,10.34,10.34,0,0,1,4.89,3.07,26.65,26.65,0,0,1,3.61,4.36,52.33,52.33,0,0,1,3,5.26c1.27,2.64,2.71,5.21,3.83,7.93a2.6,2.6,0,0,0,1.72,1.5l.23.36a2.56,2.56,0,0,0,.46,2,7.2,7.2,0,0,1,1.13,1.79,17,17,0,0,0,3.41,6.17,1.32,1.32,0,0,1,.37.52c.58,2.2,2.09,3.9,3.11,5.86,1.68,3.21,3.76,6.19,5.36,9.46a16.38,16.38,0,0,0,1.92,3.24c2,2.36,2.29,5.33,3.36,8a5.22,5.22,0,0,1,0,1.9.62.62,0,0,1-.47.63.64.64,0,0,1-.72-.32c-.34-.54-.65-1.1-1-1.62-.7-1.07-.67-2.72-2.28-3.11l-.19-.4a2.59,2.59,0,0,0-.48-1.39c-1-1.89-2-3.81-3.11-5.67-1.8-3-3.56-6.14-5.28-9.23-1.43-2.59-3-5.14-4.67-7.65a1.81,1.81,0,0,0-1.17-.86l-.67-.8c.21-1.18-.67-2-1.14-2.85-1.57-3-3.85-5.5-5.52-8.43a5.94,5.94,0,0,0-3-2.88l-.09-.1a3,3,0,0,0-1.2-2.52c-1.8-1.59-3.87-2.82-5.62-4.47a8.7,8.7,0,0,0-2-1.51c-1.49-.76-3-1.53-4.53-2.16a35.91,35.91,0,0,0-6.8-2.32,30.46,30.46,0,0,1-8.66-3.11,32.15,32.15,0,0,1-7.09-5.28c-2.86-2.73-5.77-5.44-7.89-8.82a2.64,2.64,0,0,0-2.67-1.27c-2.27.05-4.55,0-6.82,0a4.91,4.91,0,0,1-1.68-.17c-1.8-.72-3.59-1.51-5.31-2.34-2.35-1.15-4.92-1.64-7.24-2.87a23.32,23.32,0,0,0-4.58-2c-2.06-.54-3.86-1.64-5.93-2.14a22.07,22.07,0,0,1-3.73-1.3,46.91,46.91,0,0,0-5.83-2.33c-3.11-.93-6.19-2-9.24-3s-6.13-2-9.21-2.95a25.25,25.25,0,0,1-2.67-.64c-3.27-1.37-6.77-1.92-10.15-2.9-1.5-.44-3.16-.2-4.52-1.06a4.12,4.12,0,0,0-2.42-.61,4.28,4.28,0,0,1-2.28-.39,3,3,0,0,0-1.83-.45,12.4,12.4,0,0,1-4.21-.47,16.56,16.56,0,0,0-4.43-.41,30.78,30.78,0,0,1-6.14-.41,17.8,17.8,0,0,1-8.27-3.5c-1.11-.9-1.69-2.26-3-2.95a6.7,6.7,0,0,1-2.56-2.79c-1.13-2-2.28-4-3.28-6.12a8.26,8.26,0,0,0-3.27-3.48c-.21-.2-.41-.41-.62-.62-.56-1.4-1.84-1.9-3.1-2.33a27.17,27.17,0,0,0-8.78-1.26,7.63,7.63,0,0,1-2.32-.23c-2.81-.87-5.05-2.65-7.33-4.38-2.12-1.61-3.41-3.94-5-6-.74-1-1.89-2-2-3.14-.16-1.64-1-2.91-1.52-4.36a3.71,3.71,0,0,1-.32-1.65,6.84,6.84,0,0,0-1.31-4.36,3.92,3.92,0,0,1-.78-1.73,2.71,2.71,0,0,0-1-1.8,26.84,26.84,0,0,0-5.54-4.55,26.19,26.19,0,0,0-5-2l-.4-.27a4.67,4.67,0,0,0-.42-.72c-2-2.21-4.1-4.23-5.94-6.6-1.54-2-2.77-4.23-4.45-6.15a17.57,17.57,0,0,1-2.68-3.5c-1.17-2.32-2.72-4.4-4.07-6.6-1.58-2.58-3.28-5.1-4.63-7.81a4.14,4.14,0,0,0-1.52-1.69c-.08-.13-.16-.26-.25-.39a2.1,2.1,0,0,0-.23-1.23c-.64-1.13-1.33-2.25-1.91-3.41-.9-1.81-1.65-3.68-2.6-5.46-.7-1.32-1-3-2.67-3.61l-.27-.38a7.93,7.93,0,0,0-1.56-3.59c-.9-1.49-1.91-2.91-2.92-4.33A40.82,40.82,0,0,0,318,44.94c-2.89-3-5.89-5.91-8.82-8.88a2.91,2.91,0,0,0-2.24-1l-.11-.11c-1-1.91-3.23-2.31-4.7-3.66a3.65,3.65,0,0,0-1.67-.87c-2.2-.43-4.36-1.08-6.56-1.54a13.24,13.24,0,0,0-7.64,1.1,13.77,13.77,0,0,0-5.45,3.91c-1.17,1.42-2.67,2.56-3.87,4s-3.19,2.36-4,4a24.11,24.11,0,0,1-4,4.88,4,4,0,0,0-1.4,2.54l-.67.77c-1.47,1-2.87,2-3.17,3.92l-.63.79a3.76,3.76,0,0,0-2.18,1.89c-1.45,2.5-3.56,4.48-5.16,6.88s-2.85,5-4.94,7a1.59,1.59,0,0,0-.32,1.4l-.25.34a1.91,1.91,0,0,0-1.18.87c-1.4,2.09-2.86,4.14-4.13,6.3s-2.62,4-3.81,6.09a13.93,13.93,0,0,0-1.84,4.11l-.11.12a2.79,2.79,0,0,0-1.49,1.38c-1.72,2.7-2.67,5.79-4.41,8.47a2.53,2.53,0,0,0-.25,1.82.54.54,0,0,1-.21.32c-1,.51-2.11.94-1.71,2.46.05.22-.14.53-.27.77-.74,1.28-1.32,2.63-2,3.94-2.5,5-4.39,10.18-6.49,15.32-.82,2-1.72,4-2.37,6.05s-1.75,4.15-2.38,6.33c-1,3.27-2.58,6.32-3.9,9.47s-2.55,6.64-4.18,9.82a44.29,44.29,0,0,0-2.83,7.18c-1,3.13-3.11,5.74-4.09,8.92a22.9,22.9,0,0,1-3.38,6.89c-.83,1.13-.83,2.52-1.32,3.75-1.36,3.46-3.73,6.44-4.65,10.09a6.13,6.13,0,0,1-2.07,3.14,2.51,2.51,0,0,0-1,1.36l-.1.09c-1.6-.22-3,.66-4.46.95-2.62.53-5.36.35-7.9,1.27-1.9.68-3.91,1.24-5,3.18l-1.44,1.47a4.65,4.65,0,0,0-.74.37,7.11,7.11,0,0,0-2.41,3.63c-.81,2.22-2.37,3.95-3.7,5.77-2.45,3.39-5.87,3.62-9.32,1a2.57,2.57,0,0,0-2-.44l-.42-.42a1.16,1.16,0,0,0-1.26-1.31h0c-.23-1.58-1.53-2.31-2.62-3.15a1.68,1.68,0,0,0-2.17.09,7.73,7.73,0,0,0-1.87,2c-1.19,2.3-2.52,4.53-3.72,6.8a28.24,28.24,0,0,1-5,6.45c-.92.95-2.13,1.66-2.6,3a.63.63,0,0,1-.33.2,4.27,4.27,0,0,0-2.1.14,3.94,3.94,0,0,1-3.29-.21c-1.37-.63-2.86-1.08-3.78-2.46s-2.72-1.66-3.82-2.93c-3.52-4-7.79-7.32-11-11.73-1.87-2.59-4.22-4.85-5.87-7.64a2.49,2.49,0,0,0-1.6-1.31.6.6,0,0,1-.24-.34c.2-.79-.26-1.33-.66-1.93-1.08-1.57-2.26-3.09-3.34-4.65a46,46,0,0,0-5.14-6.59c-2.94-2.93-5.63-6.1-9.11-8.53-1.75-1.23-3.83-2.12-5.23-3.85-3.78-1.29-7.4-2.86-11.6-2.78-4.42.08-7.94,2.17-11.64,4a2,2,0,0,0-1.12,1.49.5.5,0,0,1-.3.23,2,2,0,0,0-2.05.82c-.54.55-1.07,1.31-1.74,1.51-1.66.49-2.53,1.92-3.8,2.86a2.6,2.6,0,0,0-1,2.45,4.6,4.6,0,0,1-1.5,1.63,2.55,2.55,0,0,0-1.06.68c-1.2,1-1.86,2.47-2.86,3.61a27.78,27.78,0,0,0-2.89,4.14c-1.59,2.69-3.31,5.33-4.67,8.19-1.43,3-2.43,6.2-3.95,9.19a37.49,37.49,0,0,0-2.26,6.55c-.77,2.64-1,5.42-2.48,7.85a1.24,1.24,0,0,0-.09.83c.42,2.12-.63,4-1.09,6s-.82,4.21-1.51,6.26-.94,4.58-1.9,6.65c-.77,1.67-1.14,3.45-1.87,5.11-.24.54-.05,1.52-.88,1.37s-.36-1.07-.37-1.66a5.26,5.26,0,0,1,.22-.82,53.21,53.21,0,0,0,1-5.85c.21-3.47,1.9-6.66,1.83-10.18a.39.39,0,0,1,.08-.19c1.2-1.93.77-4.23,1.4-6.33.55-1.82.77-3.89,1.28-5.73,1-3.53,1.47-7.19,2.72-10.66,1-2.88,1.77-5.9,2.81-8.75a34.05,34.05,0,0,1,2.67-6.54c2-3.15,2.9-6.88,5.41-9.73a3.81,3.81,0,0,0,.51-.93,3.53,3.53,0,0,1,1.36-1.61,6.62,6.62,0,0,0,2.18-2.55,9.13,9.13,0,0,1,.91-1.43c3.44-3.89,7.5-7.13,11.4-10.52a1.93,1.93,0,0,1,.36-.22,63.31,63.31,0,0,1,10.08-4.71,9.88,9.88,0,0,1,4.1-.94,1.25,1.25,0,0,0,1.31-.51l.72,0c2.75.5,5.59.36,8.29,1.36.94.34,1.73.92,2.65,1.26,2.1.78,4.22,1.54,5.8,3.24a2,2,0,0,0,1.72.63l.38.25c1,1.8,2.74,3,4.14,4.46a6.81,6.81,0,0,0,2.52,2.18l.68.77a1.54,1.54,0,0,0,.3,1.39c.91.87,1.6,2,2.8,2.54l.7.83a3.05,3.05,0,0,0,.76,2.16c2,2.74,4.26,5.19,6.28,7.89,1.54,2.06,2.84,4.39,5,6a2.51,2.51,0,0,1,.74,1,7.32,7.32,0,0,0,3.29,3.44l.64.8a2.11,2.11,0,0,0,.91,2,9.63,9.63,0,0,1,2.51,3.36,2.14,2.14,0,0,0,.68.78,20.22,20.22,0,0,1,3.26,4.09,9.59,9.59,0,0,0,5,4,5.63,5.63,0,0,0,5.64-1.61l1.08-1.1a9,9,0,0,0,1.89-4.12c.31-1.29.14-2.76,1-3.86a49.76,49.76,0,0,1,4.65-5.73c1.66-1.57,3.71-2.18,5.72-2.9a2.69,2.69,0,0,1,3,.62c1.42,1.84,3.56,2.69,5.23,4.18a4.22,4.22,0,0,0,3.75.81,5.87,5.87,0,0,0,4-3.2,33.11,33.11,0,0,1,4.66-6.25,21.9,21.9,0,0,1,5.31-4.41,14.21,14.21,0,0,1,8.47-2.1c.85.09,1.71,0,2.56,0a2.2,2.2,0,0,0,2.44-1.58q1.89-4.86,4-9.64c1.35-3.08,2.79-6.12,4.15-9.2.85-2,2.27-3.75,2.06-6.08.08-.13.17-.25.25-.37a.91.91,0,0,0,.6-.55c.93-2.12,1.84-4.26,2.8-6.36.87-1.91,2.16-3.71,2.62-5.7.66-2.78,2.1-5.21,3.21-7.72,1.53-3.44,2.58-7.11,4.61-10.35a34.07,34.07,0,0,0,2.92-6.72c1.32-3.66,3.52-6.9,4.89-10.59,1.25-3.38,2.46-6.93,4.81-9.84a1,1,0,0,0,.14-.4A31.75,31.75,0,0,1,226,97.73c.88-1.76,1.7-3.55,2.71-5.23,1.37-2.29,2-4.91,3.53-7.16a22.12,22.12,0,0,0,1.9-2.76,26.22,26.22,0,0,1,3.5-6.17,4.47,4.47,0,0,0,1.24-3.25l.28-.36a2,2,0,0,0,1.27-1.06c1-1.95,2.59-3.48,3.55-5.41.71-1.43,2.16-2.47,2.18-4.24l.27-.38c2.23-1.19,3-3.55,4.41-5.44.09-.13,0-.41,0-.62s.17-.24.26-.35a2,2,0,0,0,.9-.54c1-.9,1.52-2.27,2.42-3.13,1.75-1.7,2.94-3.78,4.49-5.6,1-1.13,2-2.2,2.94-3.36a54.72,54.72,0,0,1,5.64-6.33c1.05-1,2.37-1.68,3.14-2.86,1.83-2.82,4.89-4.19,7.21-6.42a34.83,34.83,0,0,1,5.71-3.93,16.93,16.93,0,0,1,9.32-2.85A27.63,27.63,0,0,1,307,24.05a27.1,27.1,0,0,1,4.71,3.12c3.27,3,6.36,6.28,9.52,9.45a2.88,2.88,0,0,1,.86,1.19,4.54,4.54,0,0,0,2.39,2.57l.13.13a15.57,15.57,0,0,0,4.53,7.1l.27.36c-.07,1.36.85,2.37,1.22,3.58.45,1.49,1.88,2.31,2.46,3.63s1.38,2.59,1.93,4a23.6,23.6,0,0,0,2.49,3.74c1.33,2,2.5,4.21,4,6.18,2.61,3.48,4.73,7.32,7.13,11,2.3,3.48,4.37,7.13,6.77,10.55,1.37,2,2.24,4.28,4.22,5.78a.78.78,0,0,1,.27.33c.62,1.84,2.28,2.26,3.8,3,2.44,1.2,5.15,2,7.11,4a2.72,2.72,0,0,0,1.94.71l.13.12A3,3,0,0,0,374,106a26.16,26.16,0,0,1,6.84,9.73c.44,1.17.45,2.35.82,3.49a49.08,49.08,0,0,0,3.26,8.44,9.64,9.64,0,0,0,3.55,3.54c2.4,1.49,5.08,1.87,7.82,2.17a36.42,36.42,0,0,1,11.27,3.1C409.27,137.31,410.56,138.81,412.39,139.39Z" transform="translate(-11.9 -19.43)"></path><path class="cls-1" d="M155.14,559.87v78.34c0,1.49,0,3,0,4.48s-.27,1.71-1.79,1.72c-4,0-8,0-12,0-3.34,0-6.69,0-10,0-1.73,0-2-.26-2.06-2-.05-1.27,0-2.56,0-3.84V477.86c0-2.81.5-3.13,3.45-3.08,5.54.1,11.09,0,16.64,0,1.14,0,2.28,0,3.42,0,2,.08,2.36.47,2.37,2.42,0,3.42,0,6.83,0,10.25v72.36Z" transform="translate(-11.9 -19.43)"></path><path class="cls-2" d="M486.8,717.55c0,10.74.07,21.48,0,32.22a18.88,18.88,0,0,1-2.91,10.29,6.54,6.54,0,0,1-3,2.57,24.53,24.53,0,0,1-6.91,1.8c-6.39.66-12.78.38-19.16.27a21.5,21.5,0,0,1-10-2.21,8.6,8.6,0,0,1-4.07-5,33.5,33.5,0,0,1-1.5-10.28q-.09-29.87,0-59.74a28.21,28.21,0,0,1,1.61-10,9.28,9.28,0,0,1,6.26-5.79A44.93,44.93,0,0,1,461.29,670c2.7,0,5.4.06,8.1,0,3.09-.09,6,.77,8.93,1.5a9.82,9.82,0,0,1,4.6,2.43,11.4,11.4,0,0,1,3,5.74,40.32,40.32,0,0,1,.9,10.56c0,9.1,0,18.21,0,27.31Zm-32.84.39H454c0,10.17,0,20.34,0,30.51a4.57,4.57,0,0,0,4.48,4.88,49.4,49.4,0,0,0,9.34,0,4.61,4.61,0,0,0,4.27-4,16.16,16.16,0,0,0,.27-3.17q0-28.82,0-57.61a20.49,20.49,0,0,0-.06-2.35,4.87,4.87,0,0,0-4.9-4.66c-2.7-.1-5.41-.1-8.1,0a6.22,6.22,0,0,0-4.46,2.18c-1,1.14-.9,2.51-.91,3.84Q454,702.79,454,717.94Z" transform="translate(-11.9 -19.43)"></path><path class="cls-2" d="M541,718q0,21.76,0,43.54c0,3.25,0,3.26-3.29,3.26-2.84,0-5.69,0-8.53,0-1.75,0-2.15-.5-2-2.17.07-.71.15-1.42.15-2.12,0-7,0-14.09,0-21.13a12.47,12.47,0,0,0-.89-4.11c-1-2.86-2.28-5.59-3.3-8.43-1.32-3.64-2.78-7.23-4.28-10.8-1.1-2.6-2.07-5.25-3-7.9a26.8,26.8,0,0,1-1.56-3.7c-.1-.47-.37-1.05-1-1s-.55.71-.57,1.19,0,1,0,1.49q0,23,0,45.89a23.55,23.55,0,0,1-.23,4.89,3.75,3.75,0,0,0,0,1.7,14.42,14.42,0,0,1,0,4.86c-.08,1-.5,1.36-1.47,1.35-3.06,0-6.11,0-9.17,0h-.22a1,1,0,0,1-1.16-1.19l-.06-8.28c0-.57,0-1.14,0-1.7q0-36.82,0-73.64c0-2.18-.15-4.36-.28-6.54s.34-2.88,2.55-2.92c3.06,0,6.12,0,9.18,0a2.23,2.23,0,0,1,2.54,2c.34,2,1.22,3.77,1.6,5.68.5,2.59,1.44,5,2.13,7.55.52,1.91,1.06,3.81,1.68,5.69.41,1.26.59,2.6,1,3.88,1,3,1.3,6.21,2.76,9.07.46.9.29,1.94.55,2.91.46,1.69,1.48,3.21,1.52,5,0,.62.52.8,1.06.82a.86.86,0,0,0,1-.86c0-.57,0-1.14,0-1.71V675c0-.71,0-1.42,0-2.13,0-2.24.1-2.33,2.25-2.35q4,0,8.11,0c2.44,0,2.83.42,2.83,2.87Z" transform="translate(-11.9 -19.43)"></path><path class="cls-2" d="M13.08,718v-43.1c0-.57,0-1.14,0-1.71.08-1.62.29-1.9,1.86-1.91,8,0,16.07,0,24.11.05a15.66,15.66,0,0,1,9.56,3.52,14.42,14.42,0,0,1,5.7,11.19c.33,7.88.34,15.79,0,23.67a14.82,14.82,0,0,1-6.74,12.18c-.4.27-.85.5-1.25.79-1.4,1-1.65,1.85-1,3.48a68.56,68.56,0,0,1,2.36,8.08c.3,1.22.91,2.35,1.25,3.59.94,3.38,2.13,6.69,3.16,10,.79,2.56,1.4,5.18,2.28,7.71s1.41,4.86,2.26,7.24c.57,1.6.41,1.95-1.23,2-3.2,0-6.4,0-9.6,0-1.65,0-2.26-.5-2.35-2.07a11.07,11.07,0,0,0-.9-2.82c-1.52-4.82-3-9.67-4.45-14.5-.76-2.47-2-4.86-2.1-7.52a5.62,5.62,0,0,0-.71-1.77c-.93-2.15-1.32-4.47-2.11-6.67-.12-.33-.11-.76-.33-1-.6-.62-.36-1.85-1.33-2.08a7.65,7.65,0,0,0-4.19-.1,1,1,0,0,0-.73.93c-.1,1.2-.32,2.38-.32,3.6q0,15.69,0,31.37c0,2.64,0,2.63-2.71,2.62s-5.4,0-8.1,0c-2.25,0-2.41-.14-2.41-2.43Q13.07,740.21,13.08,718Zm13.16-19.54c0,4.84,0,9.68,0,14.52,0,1.76.07,1.83,1.78,1.85,2.63,0,5.26,0,7.9,0a3.68,3.68,0,0,0,1.8-.5c3.05-1.6,3.84-4.43,3.92-7.49.13-5.19,0-10.38.05-15.58A11.78,11.78,0,0,0,41,687.1c-1-2.73-2.82-4.91-6.36-4.74-2.13.1-4.27,0-6.41,0-2,0-2,0-2,2C26.22,689.09,26.24,693.79,26.24,698.48Z" transform="translate(-11.9 -19.43)"></path><path class="cls-2" d="M209.05,718.25V674.49c0-.49,0-1,0-1.49a1.67,1.67,0,0,1,1.6-1.68,6,6,0,0,1,.85,0c7.68,0,15.37-.11,23,.09a15.7,15.7,0,0,1,13.06,6.73,15.47,15.47,0,0,1,2.36,6c1.61,8,.8,16,.62,24a16.81,16.81,0,0,1-5.44,12.53,24.76,24.76,0,0,1-2.95,2.06c-1.49,1-1.51,1.36-1,3,.83,2.48,1.48,5,2.31,7.49.91,2.74,1.51,5.57,2.57,8.29.88,2.27,1.33,4.72,2.11,7.05s1.33,5,2.3,7.42a69.27,69.27,0,0,1,2.2,7.27c.33,1.21.07,1.52-1.26,1.54-3.27,0-6.54,0-9.81,0a1.85,1.85,0,0,1-1.92-1.35,26.08,26.08,0,0,1-1.24-3.61c-.88-4-2.43-7.81-3.62-11.71a27.46,27.46,0,0,0-1.09-3.84c-1.27-2.68-1.4-5.74-2.69-8.44a24.76,24.76,0,0,1-1.11-4.08,27.42,27.42,0,0,1-1.17-4,1.72,1.72,0,0,0-2-1.52c-1,.06-2,0-3,0-1.32.07-1.56.33-1.63,1.69-.05.78,0,1.57,0,2.35v31.38c0,.5,0,1,0,1.49-.06,1.51-.11,1.61-1.56,1.63q-4.9,0-9.81,0c-1.49,0-1.75-.26-1.77-1.75,0-2.92,0-5.83,0-8.75V718.25Zm28.87-19c-.11-4.36.26-8.75-1.16-13a5.71,5.71,0,0,0-4.94-3.86c-2.7-.06-5.41-.06-8.11,0-1.63,0-1.78.23-1.86,1.87a31.72,31.72,0,0,0,.29,4.46c.17,2-.23,4.1-.25,6.15-.07,6.11-.11,12.22.26,18.32.09,1.52.1,1.63,1.57,1.65,2.91,0,5.83,0,8.74,0a3.68,3.68,0,0,0,1.77-.61c2.37-1.23,3-3.55,3.29-5.79A45,45,0,0,0,237.92,699.28Z" transform="translate(-11.9 -19.43)"></path><path class="cls-2" d="M314.85,724.24c0-11.81,0-23.62,0-35.43a52.26,52.26,0,0,1,.59-7.41,13.72,13.72,0,0,1,3.25-6.77,3.24,3.24,0,0,1,1.23-.8,21.21,21.21,0,0,1,8.34-2.17c3-.16,6.09-.21,9.14-.33a49.69,49.69,0,0,1,8.9.59c3.92.57,7.51,2.35,9.24,6.33a12.37,12.37,0,0,1,1.08,4.49c.07,2.84.51,5.66.51,8.5v70c0,3.6,0,3.6-3.51,3.59h-7.68c-1.47,0-1.88-.39-2-1.84a16.23,16.23,0,0,1,0-1.71V733.75c0-.5,0-1,0-1.49-.1-1.53-.56-2-2.11-2.06q-6.62,0-13.23,0c-1.43,0-1.72.31-1.75,1.79-.05,2.49,0,5,0,7.47q0,11.21,0,22.41c0,.5,0,1,0,1.5a1.3,1.3,0,0,1-1.45,1.45l-9.18,0c-.88,0-1.31-.41-1.29-1.3,0-.49,0-1,0-1.49V724.24Zm29-20.58h0c0-4.26,0-8.52,0-12.78a13.18,13.18,0,0,0-1.08-4.94c-.82-2.1-2.84-2.9-5-3.09a16.57,16.57,0,0,0-7.92.93,4.15,4.15,0,0,0-2.64,3.35,39,39,0,0,0-.47,5.92c.08,4,0,8.09,0,12.14s0,8.1,0,12.14c0,2.21.45,2.58,2.66,2.58,3.76,0,7.52,0,11.28,0,2.38,0,3-.65,3-3C343.86,712.47,343.84,708.07,343.84,703.66Z" transform="translate(-11.9 -19.43)"></path><path class="cls-2" d="M580.39,738.69c0-2.49-.07-5,0-7.47.06-1.59-.47-3.08-.53-4.64,0-.63-.52-1-.87-1.42-2-2.56-4.87-3.85-7.68-5.15-3.13-1.44-6.21-3-9.19-4.69a31.21,31.21,0,0,1-4.53-3.13,12,12,0,0,1-3.82-6,29.72,29.72,0,0,1-.76-8.43c0-4,0-8.11,0-12.16a7.1,7.1,0,0,1,.54-3.12,2.36,2.36,0,0,0,.26-1.24c-.27-2.36.82-4.32,2.08-6.08a9.12,9.12,0,0,1,5.69-3.41c5.46-1.18,11-.86,16.54-.89a32.12,32.12,0,0,1,8,1,9.12,9.12,0,0,1,6.88,7.13,45.09,45.09,0,0,1,1.29,10.74c0,2-.42,2.39-2.37,2.41q-4.69,0-9.39,0c-1.75,0-2.15-.36-2.15-2.12a43.85,43.85,0,0,0-.46-4.87,2.71,2.71,0,0,0-2.2-2.53,18.87,18.87,0,0,0-7.41-.17c-1.6.23-2.65,1.85-2.89,3.49-.67,4.53-.19,9.09-.37,13.62-.15,3.72,1.85,5.92,5,7.44,4.94,2.41,10,4.55,14.73,7.42,3,1.83,5.66,4,6.91,7.51a10.52,10.52,0,0,1,.72,3.51c.1,8.75.08,17.49,0,26.24a19.11,19.11,0,0,1-2,8,6.63,6.63,0,0,1-2.65,2.68c-3,1.89-6.39,2.19-9.76,2.31-4.26.15-8.54.14-12.8,0a16.48,16.48,0,0,1-8.29-2.08,9.41,9.41,0,0,1-4.23-6c-1.06-3.84-.69-7.75-1.13-11.61a5.32,5.32,0,0,1,0-1.49c.25-1.49.54-1.74,2.11-1.75q4.8,0,9.6,0c1.69,0,1.72.05,2,1.76a39.41,39.41,0,0,1,.18,5.54c.09,2.9,1.2,4,4.07,4.34a18.38,18.38,0,0,0,5.29,0,3.24,3.24,0,0,0,3-2.59,17.79,17.79,0,0,0,.58-4C580.36,744.09,580.39,741.39,580.39,738.69Z" transform="translate(-11.9 -19.43)"></path><path class="cls-2" d="M136.84,738.84c0-2.63-.06-5.26,0-7.89a13.68,13.68,0,0,0-.6-4.41c-.57-1.86-2.23-3-3.87-4-3.48-2.15-7.3-3.62-10.92-5.51a33.23,33.23,0,0,1-7.74-5.12,11.52,11.52,0,0,1-3.57-5.86,32.73,32.73,0,0,1-.63-7.15c-.05-3.13.13-6.27-.05-9.39a39.1,39.1,0,0,1,1-10.14c.82-3.94,3.55-6.67,8.34-7.63,5.22-1,10.46-.66,15.7-.79a18.74,18.74,0,0,1,5.47.68c1.41.38,2.87.14,4.28.95a10.83,10.83,0,0,1,5.51,8,47.74,47.74,0,0,1,.72,9.3c0,2.16-.18,2.34-2.29,2.36-3,0-6.11,0-9.17,0-1.92,0-2.19-.29-2.17-2.27a25,25,0,0,0-.43-4.65,3,3,0,0,0-2.59-2.74,23.24,23.24,0,0,0-7.21,0c-1.59.24-2.12,1.49-2.65,2.74a4,4,0,0,0-.1.85c-.6,5-.3,9.94-.2,14.9.06,2.9,2.09,4.59,4.41,5.78,2.76,1.4,5.64,2.61,8.39,4,3.37,1.71,6.9,3.3,9.79,5.82s4.59,5.28,4.62,9.17c.05,8.54.12,17.07,0,25.61A18,18,0,0,1,148.7,760a7.51,7.51,0,0,1-2.69,2.62c-2.64,1.68-5.6,2-8.54,2.08-4.47.18-9,.18-13.44,0-3.16-.11-6.34-.4-9.09-2.35a10.33,10.33,0,0,1-3.75-5.43c-1.47-4.23-.43-8.61-1.08-12.87-.25-1.72.41-2.31,2.12-2.31,3.13,0,6.26,0,9.39,0,1.76,0,2,.24,2,2-.08,2.08.31,4.1.38,6.16s1.5,3.18,3.54,3.5a21.07,21.07,0,0,0,5.72,0,3.36,3.36,0,0,0,3.19-2.84,17.58,17.58,0,0,0,.42-4.22C136.83,743.82,136.84,741.33,136.84,738.84Z" transform="translate(-11.9 -19.43)"></path><path class="cls-2" d="M283.56,764.82c-2.2,0-4.41,0-6.61,0-.8,0-1.29-.2-1.46-1.14-.68-3.68-1.71-7.29-2-11.05a23.84,23.84,0,0,0-.85-4.58c-.75-2.6-.9-5.29-1.4-7.93-.42-2.21-.9-4.42-1.24-6.66-.4-2.59-.81-5.18-1.34-7.74-.64-3.11-1.05-6.26-1.6-9.39-.34-2-.69-3.89-1-5.85-.59-3.69-1.22-7.41-2-11.06-.91-4.07-1.35-8.22-2.23-12.3a51.36,51.36,0,0,1-1.2-7.31,54.58,54.58,0,0,0-1.28-6.63c-.07-.34-.2-.68-.26-1-.14-.75.07-1.27,1-1.27l9.39,0A1.54,1.54,0,0,1,271,672a3.87,3.87,0,0,1,.29,1.23c-.06,4.08,1.12,8,2,11.89a2,2,0,0,1,.11.63c-.36,3,.4,6,1.07,8.82.72,3.07.65,6.18,1.29,9.23.58,2.81,1.4,5.64,1.24,8.6-.09,1.62.67,3.17.94,4.78.75,4.53,1.14,9.13,2,13.62.73,3.69.88,7.44,1.66,11.11.13.64.41,1.07,1.1,1.06s1-.43,1.09-1.08c.27-2.1,1-4.14.88-6.29s.95-3.84,1.07-5.84c.14-2.47,1.15-4.8,1.06-7.34a18.51,18.51,0,0,1,.92-4.53c.67-2.91.63-5.89,1.36-8.8a50.9,50.9,0,0,0,1.15-7.11A64.28,64.28,0,0,1,292,691.8c.05-.21.19-.42.16-.62-.36-2.67.56-5.22,1.06-7.75.6-3,.47-6.08,1.45-9a4.51,4.51,0,0,0,.16-1c.21-2.47.21-2.48,2.75-2.5,2.28,0,4.55,0,6.83,0s2.14,0,1.89,2.12c-.48,4.14-1.2,8.26-1.92,12.36-.42,2.41-.72,4.88-1.2,7.3a71.3,71.3,0,0,0-1.19,8.18,8.64,8.64,0,0,1-.14,1.69c-.95,3.5-1,7.15-1.72,10.66-.67,3.18-.64,6.49-1.79,9.58a5,5,0,0,0-.13,1.69,6.59,6.59,0,0,1-.63,3.52,1.13,1.13,0,0,0-.18.6c.24,2.81-1.05,5.43-1,8.22a7.09,7.09,0,0,1-.42,2.29,6.26,6.26,0,0,0-.38,1.44c-.2,3.83-1.26,7.54-1.64,11.32-.33,3.26-1.42,6.38-1.4,9.68a4.89,4.89,0,0,1-.31,1.44c-.59,1.84-.59,1.85-2.53,1.86Z" transform="translate(-11.9 -19.43)"></path><path class="cls-2" d="M66.81,718V673.85c0-.43,0-.85,0-1.28a1.21,1.21,0,0,1,1.2-1.25c.49,0,1,0,1.49,0h28.6c.5,0,1,0,1.5,0a1.26,1.26,0,0,1,1.34,1.35c0,2.7.08,5.41,0,8.1,0,1.22-.59,1.55-2.06,1.56-5.27,0-10.53,0-15.8,0H81.59a1.31,1.31,0,0,0-1.42,1.28,10.7,10.7,0,0,0-.07,1.7q0,10.68,0,21.35v.42c0,3,.15,3.12,3.12,3.12,4.27,0,8.53,0,12.8,0,2.25,0,2.41.15,2.42,2.43s0,4.41,0,6.61c0,1.73-.25,2-2,2-4.55,0-9.11,0-13.66,0-2.48,0-2.65.16-2.66,2.68q0,13.67,0,27.32c0,2.34.22,2.54,2.58,2.54,5.34,0,10.68,0,16,0,2.13,0,2.27.16,2.3,2.34s0,4.56,0,6.83c0,1.58-.33,1.85-1.93,1.85q-15.15,0-30.31,0c-1.9,0-1.93-.08-1.93-2.39Z" transform="translate(-11.9 -19.43)"></path><path class="cls-2" d="M163.71,718V674c0-.36,0-.71,0-1.07.08-1.33.32-1.6,1.66-1.65s2.7,0,4,0h25.39c.43,0,.86,0,1.28,0,1.52.09,1.77.29,1.79,1.75q.08,3.84,0,7.68c0,1.3-.32,1.58-1.7,1.6-2.35,0-4.7,0-7,0-3.34,0-6.69,0-10,0-2,0-2.25.27-2.25,2.2q0,11.73,0,23.47c0,1.93.26,2.18,2.26,2.19,4.62,0,9.24,0,13.86,0,2.2,0,2.29.1,2.31,2.29q0,3.51,0,7c0,1.63,0,1.66-1.7,1.67-4.63,0-9.25,0-13.87,0-.5,0-1,0-1.49,0a1.26,1.26,0,0,0-1.34,1.35c0,.43,0,.85,0,1.28q0,13.76,0,27.53c0,2.08.21,2.31,2.32,2.32,5.05,0,10.1,0,15.15,0a17.53,17.53,0,0,1,1.92,0c1.29.14,1.6.45,1.61,1.74,0,2.56,0,5.13,0,7.69,0,1.44-.13,1.55-1.62,1.57-4.13,0-8.25,0-12.38,0H166c-2.24,0-2.26,0-2.26-2.25Z" transform="translate(-11.9 -19.43)"></path><path class="cls-2" d="M392.93,723.39v38.84c0,2.59,0,2.56-2.54,2.6-3.27.06-6.54-.2-9.81.14a1.36,1.36,0,0,1-1.61-1.3,13.75,13.75,0,0,1-.05-2.13V684.7c0-3.14,0-3.15-3.16-3.17-2.85,0-5.69,0-8.54,0-1,0-1.47-.26-1.63-1.39a51.66,51.66,0,0,1-.24-7.66c0-1.46.47-1.83,2-1.93.57,0,1.14,0,1.71,0h33.07c.5,0,1,0,1.5,0a1.48,1.48,0,0,1,1.61,1.59c0,2.49.08,5,0,7.47-.08,1.72-.37,1.9-2.09,1.91-2.63,0-5.26,0-7.9,0-2.14,0-2.24.14-2.24,2.35v39.49Z" transform="translate(-11.9 -19.43)"></path><path class="cls-2" d="M11.92,387.92c0-23.48-.06-46.95.05-70.43a26.33,26.33,0,0,1,3.73-14c3.43-5.52,8.53-9,14.27-11.63a48,48,0,0,1,8.84-2.76c6.58-1.6,13.22-1.55,19.88-1.53a33.39,33.39,0,0,1,3.6.3c3.16.37,6.29.9,9.42,1.43a22.68,22.68,0,0,1,3.4,1.06,38.51,38.51,0,0,1,7.68,3.43,2.83,2.83,0,0,0,3,0,45,45,0,0,1,10.76-4.24,55.78,55.78,0,0,1,8.11-1.51,110.54,110.54,0,0,1,12.34-.42A69.32,69.32,0,0,1,129.64,289a43.65,43.65,0,0,1,10.91,3.77c4.79,2.46,9,5.61,11.92,10.23a19.6,19.6,0,0,1,3.14,8.39c.21,1.88.86,3.71.92,5.65,0,1,.18,2,.18,3q0,68.3,0,136.6a16.28,16.28,0,0,1-.19,3.19c-.34,1.72-.29,1.74-2.12,1.76-.93,0-1.85,0-2.78,0H133.9c-2.49,0-2.51,0-2.51-2.49q0-39.06,0-78.12,0-30.11,0-60.19c0-3.42-1.78-5.74-4.56-7.38a22.69,22.69,0,0,0-12.17-3c-2.34,0-4.72-.21-7,.4a20.06,20.06,0,0,0-6.28,2.34,9.23,9.23,0,0,0-4.29,7.63c-.14,2.77,0,5.55,0,8.32q0,64.14,0,128.28c0,4.65.55,4.19-4.25,4.21q-9.28,0-18.57,0c-1.93,0-1.87,0-2.23-1.87a17.62,17.62,0,0,1-.27-3.39q0-66.81,0-133.62A11.78,11.78,0,0,0,70.08,316a4.48,4.48,0,0,0-1.68-1.84,36.65,36.65,0,0,0-5.87-2.74c-4.87-1.43-9.69-1.19-14.55-.63a16.07,16.07,0,0,0-7.35,3c-2.66,1.9-3.26,4.86-3.37,7.89s0,6.26,0,9.39q0,63.5,0,127c0,.35,0,.71,0,1.06-.05,2.21-.26,2.42-2.48,2.42-6.69,0-13.38,0-20.06,0-2.67,0-2.73-.08-2.74-2.8Zm.7-.39q0,35.33,0,70.65c0,2.59,0,2.62,2.61,2.63,5.9,0,11.81-.05,17.71,0,3.16,0,3.58-.24,3.58-3.64q0-67.77-.05-135.54c0-5.08,2.45-8.32,6.63-10.69,1-.59,2.09-.22,3.1-.49A32.52,32.52,0,0,1,58,309.56a25.21,25.21,0,0,1,7.87,2c3.29,1.47,5.93,3.59,6.43,7.47a25.8,25.8,0,0,1,.11,3.41V456.28a15.23,15.23,0,0,0,.05,2.14c.27,2,.67,2.38,2.73,2.38H92.87c3.34,0,3,.29,3-2.95q0-63.83,0-127.64c0-3.47-.3-7,.39-10.41.47-2.33.73-4.76,2.87-6.35a5.89,5.89,0,0,0,.9-.9,6.72,6.72,0,0,1,4.1-1.95,56.23,56.23,0,0,1,6.87-1.13,50.27,50.27,0,0,1,5.49,0,42.44,42.44,0,0,1,6.87,1.13,10.71,10.71,0,0,1,5.63,2.64,10.41,10.41,0,0,1,3.18,7.34q0,68.61,0,137.24c0,.5,0,1,0,1.49,0,.95.42,1.48,1.4,1.49h18.78c3.27,0,3.28,0,3.28-3.25q0-65.85,0-131.69c0-4.67.26-9.33-.8-14-.93-4.07-2.07-7.89-5.36-10.73a25.88,25.88,0,0,1-2.56-2.57,24.65,24.65,0,0,0-7.16-5.19,34.73,34.73,0,0,0-7.66-2.94,29.25,29.25,0,0,0-5.55-1.19c-1.77-.11-3.53-.33-5.26-.6a21.74,21.74,0,0,0-3.59-.3,95.08,95.08,0,0,0-13.37.69A67.44,67.44,0,0,0,96,290.65a40.75,40.75,0,0,0-8.92,3.66,6.1,6.1,0,0,1-5.69.14c-2.22-1-4.2-2.45-6.62-3.11-1.39-.38-2.81-.95-4.19-1.18a54.44,54.44,0,0,0-6-1.13c-2.24-.12-4.47-.68-6.74-.66a95.16,95.16,0,0,0-12.94.66c-2.42.36-4.85.85-7.27,1.21a23.75,23.75,0,0,0-7.31,2.69c-2.41,1.26-5,2.26-7.13,3.94a41.27,41.27,0,0,0-7.79,8.62,3.53,3.53,0,0,0-.21.6,47.76,47.76,0,0,0-1.43,4.83c-.31,1.06,0,2.25-.49,3.12a7,7,0,0,0-.66,3.91Q12.61,352.75,12.62,387.53Z" transform="translate(-11.9 -19.43)"></path><path class="cls-2" d="M414.75,717.82V674.07c0-.28,0-.56,0-.85,0-2.32,0-2.33,2.34-2.34,2.56,0,5.12,0,7.68,0,1,0,1.47.32,1.42,1.36,0,.78,0,1.56,0,2.34q0,44,0,87.92c0,2.39-.31,2.62-2.75,2.42a25.75,25.75,0,0,0-5.95.08,9.25,9.25,0,0,1-1.49.09,1.11,1.11,0,0,1-1.23-1.16c0-.72,0-1.43,0-2.14q0-22,0-44Z" transform="translate(-11.9 -19.43)"></path><path class="cls-2" d="M66.84,164.9a1.25,1.25,0,0,1-1.31.51,9.88,9.88,0,0,0-4.1.94,63.31,63.31,0,0,0-10.08,4.71,1.93,1.93,0,0,0-.36.22c-3.9,3.39-8,6.63-11.4,10.52a9.13,9.13,0,0,0-.91,1.43,6.62,6.62,0,0,1-2.18,2.55,3.53,3.53,0,0,0-1.36,1.61,3.81,3.81,0,0,1-.51.93c-2.51,2.85-3.45,6.58-5.41,9.73a34.05,34.05,0,0,0-2.67,6.54c-1,2.85-1.77,5.87-2.81,8.75C22.49,216.81,22,220.47,21,224c-.51,1.84-.73,3.91-1.28,5.73-.63,2.1-.2,4.4-1.4,6.33a.39.39,0,0,0-.08.19c.07,3.52-1.62,6.71-1.83,10.18a53.21,53.21,0,0,1-1,5.85,5.26,5.26,0,0,0-.22.82c0,.59-.39,1.51.37,1.66s.64-.83.88-1.37c.73-1.66,1.1-3.44,1.87-5.11,1-2.07,1.17-4.46,1.9-6.65s1-4.19,1.51-6.26,1.51-3.85,1.09-6a1.24,1.24,0,0,1,.09-.83c1.44-2.43,1.71-5.21,2.48-7.85a37.49,37.49,0,0,1,2.26-6.55c1.52-3,2.52-6.18,3.95-9.19,1.36-2.86,3.08-5.5,4.67-8.19a27.78,27.78,0,0,1,2.89-4.14c1-1.14,1.66-2.59,2.86-3.61a2.55,2.55,0,0,1,1.06-.68c.27.86-.42,1.36-.84,1.85a60.19,60.19,0,0,0-7.07,10.31,101.53,101.53,0,0,0-5.9,12.36c-1.06,2.75-2,5.54-3.1,8.29-.65,1.63-.77,3.39-1.34,5.07a93.57,93.57,0,0,0-2.61,10.69c-.64,3-1.91,5.9-2.17,9a10.65,10.65,0,0,1-.91,2.59c-1.21,3.29-2.13,6.7-3.76,9.83-.38.72-.87,1.38-1.46,2.31a3.51,3.51,0,0,1-.05-3,8.31,8.31,0,0,0,.51-3.35,15.06,15.06,0,0,1,.54-3.77c.52-2.49.83-5,1.22-7.53a8.21,8.21,0,0,1,.22-1.68,35.49,35.49,0,0,0,1.57-7,58.73,58.73,0,0,0,1.19-6.24,42.62,42.62,0,0,1,1-4.51c.45-2.35,1.22-4.63,1.65-7,.25-1.36,1-2.63,1.33-4,.68-2.64,1.52-5.24,2.38-7.83a36.13,36.13,0,0,1,2.18-5.69c1.13-2.11,2-4.32,3-6.48a30,30,0,0,1,2.9-4.59A105.56,105.56,0,0,1,41,178.92a22.47,22.47,0,0,1,3.71-3.51c1.71-1.26,3.25-2.76,5-4a33.33,33.33,0,0,1,8.66-4.8c1.11-.38,2.23-.85,3.32-1.33A8.68,8.68,0,0,1,66.84,164.9Z" transform="translate(-11.9 -19.43)"></path><path class="cls-2" d="M402.61,144a8.26,8.26,0,0,1,3.27,3.48c1,2.08,2.15,4.1,3.28,6.12a6.7,6.7,0,0,0,2.56,2.79c1.31.69,1.89,2,3,2.95a17.8,17.8,0,0,0,8.27,3.5,30.78,30.78,0,0,0,6.14.41,16.56,16.56,0,0,1,4.43.41,12.4,12.4,0,0,0,4.21.47,3,3,0,0,1,1.83.45,4.28,4.28,0,0,0,2.28.39,4.12,4.12,0,0,1,2.42.61c1.36.86,3,.62,4.52,1.06,3.38,1,6.88,1.53,10.15,2.9a25.25,25.25,0,0,0,2.67.64c3.08.95,6.17,1.88,9.21,2.95s6.13,2.09,9.24,3a46.91,46.91,0,0,1,5.83,2.33,22.07,22.07,0,0,0,3.73,1.3c2.07.5,3.87,1.6,5.93,2.14a23.32,23.32,0,0,1,4.58,2c2.32,1.23,4.89,1.72,7.24,2.87,1.72.83,3.51,1.62,5.31,2.34a4.91,4.91,0,0,0,1.68.17c2.27,0,4.55,0,6.82,0a2.64,2.64,0,0,1,2.67,1.27c2.12,3.38,5,6.09,7.89,8.82a32.15,32.15,0,0,0,7.09,5.28,30.46,30.46,0,0,0,8.66,3.11,35.91,35.91,0,0,1,6.8,2.32c1.54.63,3,1.4,4.53,2.16a8.7,8.7,0,0,1,2,1.51c1.75,1.65,3.82,2.88,5.62,4.47a3,3,0,0,1,1.2,2.52.91.91,0,0,1-.9-.43,41.21,41.21,0,0,0-7.48-6.61,25.51,25.51,0,0,0-6-3.12,79.46,79.46,0,0,0-10.06-3.07,17.32,17.32,0,0,1-4.83-2.07,52.39,52.39,0,0,1-12.78-10.77,26.85,26.85,0,0,1-2.56-3.59,1.83,1.83,0,0,0-1.84-1c-1.85,0-3.7-.1-5.54,0a11,11,0,0,1-5.75-1c-2.45-1.19-4.93-2.32-7.47-3.28-2-.74-3.79-1.83-5.88-2.19-.61-.11-1-.57-1.5-.78-2.74-1.08-5.51-2.05-8.26-3.08s-5.66-2.16-8.52-3.15c-3.12-1.09-6.25-2.17-9.38-3.21-2.68-.89-5.34-1.84-8.06-2.53s-5.39-1.63-8.14-2.26c-1.69-.4-3.43-.93-5.11-1.27-2.22-.44-4.31-1.3-6.57-1.63-2-.3-4.1-.49-6.05-1-3-.73-6.07-.54-9.1-.75-7.93-.57-14.2-3.81-18-11.14a35.27,35.27,0,0,0-4.13-6.65C403.23,145.55,402.43,145,402.61,144Z" transform="translate(-11.9 -19.43)"></path><path class="cls-2" d="M190.12,197.22a2.51,2.51,0,0,1,1-1.36,6.13,6.13,0,0,0,2.07-3.14c.92-3.65,3.29-6.63,4.65-10.09.49-1.23.49-2.62,1.32-3.75a22.9,22.9,0,0,0,3.38-6.89c1-3.18,3.13-5.79,4.09-8.92a44.29,44.29,0,0,1,2.83-7.18c1.63-3.18,2.8-6.55,4.18-9.82s2.95-6.2,3.9-9.47c.63-2.18,1.7-4.17,2.38-6.33s1.55-4,2.37-6.05c2.1-5.14,4-10.35,6.49-15.32.66-1.31,1.24-2.66,2-3.94.13-.24.32-.55.27-.77-.4-1.52.71-2,1.71-2.46-.17,2.1-1.55,3.7-2.34,5.55-1.44,3.35-3,6.65-4.37,10-.89,2.2-1.89,4.38-2.65,6.61-1.44,4.2-3.25,8.25-4.81,12.4s-3.41,8.3-5.12,12.45c-1.61,3.89-3.32,7.75-4.89,11.66-1.66,4.11-3.54,8.13-5.31,12.19-2.73,6.26-5.76,12.37-8.55,18.6-.7,1.55-1,3.26-2.14,4.61C191.93,196.59,191.34,197.49,190.12,197.22Z" transform="translate(-11.9 -19.43)"></path><path class="cls-2" d="M324.43,40.38A4.54,4.54,0,0,1,322,37.81a2.88,2.88,0,0,0-.86-1.19c-3.16-3.17-6.25-6.41-9.52-9.45A27.1,27.1,0,0,0,307,24.05a27.63,27.63,0,0,0-14.12-3.77,16.93,16.93,0,0,0-9.32,2.85,34.83,34.83,0,0,0-5.71,3.93c-2.32,2.23-5.38,3.6-7.21,6.42-.77,1.18-2.09,1.9-3.14,2.86a54.72,54.72,0,0,0-5.64,6.33c-.94,1.16-2,2.23-2.94,3.36-1.55,1.82-2.74,3.9-4.49,5.6-.9.86-1.41,2.23-2.42,3.13a2,2,0,0,1-.9.54c-.23-.8.22-1.31.68-1.89,2.26-2.81,4.48-5.66,6.72-8.49a16.58,16.58,0,0,1,1.35-1.64c2.58-2.54,4.87-5.34,7.25-8.07a47,47,0,0,1,5.77-5.34c2.07-1.7,4-3.57,6.25-5.08a37.77,37.77,0,0,1,8.33-4.54,16.45,16.45,0,0,1,8.18-.54,7.87,7.87,0,0,0,1,.19c5.57.12,10.16,2.76,14.53,5.78a34,34,0,0,1,6.78,5.79c2.09,2.49,4.17,5,6.25,7.5A1.46,1.46,0,0,1,324.43,40.38Z" transform="translate(-11.9 -19.43)"></path><path class="cls-2" d="M238.85,73.16a4.47,4.47,0,0,1-1.24,3.25,26.22,26.22,0,0,0-3.5,6.17,22.12,22.12,0,0,1-1.9,2.76c-1.51,2.25-2.16,4.87-3.53,7.16-1,1.68-1.83,3.47-2.71,5.23a31.75,31.75,0,0,0-2.95,6.92,1,1,0,0,1-.14.4c-2.35,2.91-3.56,6.46-4.81,9.84-1.37,3.69-3.57,6.93-4.89,10.59a34.07,34.07,0,0,1-2.92,6.72c-2,3.24-3.08,6.91-4.61,10.35-1.11,2.51-2.55,4.94-3.21,7.72-.46,2-1.75,3.79-2.62,5.7-1,2.1-1.87,4.24-2.8,6.36a.91.91,0,0,1-.6.55c-.49-1.48.54-2.64,1.06-3.77,1.89-4.15,3.44-8.46,5.41-12.57,1.79-3.74,3.34-7.58,5-11.36,2.4-5.3,4.65-10.67,7.11-15.93,2.29-4.9,4.48-9.84,6.82-14.71,2-4.25,4-8.56,6.07-12.78,1.5-3,3-6.09,4.74-9,1.6-2.64,3.1-5.35,4.6-8C237.65,74,238,73.33,238.85,73.16Z" transform="translate(-11.9 -19.43)"></path><path class="cls-2" d="M196.17,163.25c.21,2.33-1.21,4.12-2.06,6.08-1.36,3.08-2.8,6.12-4.15,9.2s-2.72,6.4-4,9.64a2.2,2.2,0,0,1-2.44,1.58c-.85-.05-1.71.05-2.56,0a14.21,14.21,0,0,0-8.47,2.1,21.9,21.9,0,0,0-5.31,4.41,33.11,33.11,0,0,0-4.66,6.25,5.87,5.87,0,0,1-4,3.2,4.22,4.22,0,0,1-3.75-.81c-1.67-1.49-3.81-2.34-5.23-4.18a2.69,2.69,0,0,0-3-.62c-2,.72-4.06,1.33-5.72,2.9a49.76,49.76,0,0,0-4.65,5.73c-.85,1.1-.68,2.57-1,3.86a9,9,0,0,1-1.89,4.12c-.49-1.32.57-2.28.86-3.41a22.7,22.7,0,0,1,2.61-7.11,17.47,17.47,0,0,1,6.59-6.05c3.19-1.68,6-1,8.55,1.32A28.46,28.46,0,0,0,155,204c1.91,1.28,3.53,1.22,5.1-.39a18.78,18.78,0,0,0,2.3-3c2.88-4.44,6.44-8.24,11.33-10.54a16,16,0,0,1,7.26-1.15c3.82.06,3.74,0,5.15-3.56,1.24-3.13,2.71-6.18,4.05-9.27,1.48-3.42,2.89-6.87,4.39-10.28C195,164.89,195.14,163.79,196.17,163.25Z" transform="translate(-11.9 -19.43)"></path><path class="cls-2" d="M512.54,182.42a2.8,2.8,0,0,1-2.74-.7,28.21,28.21,0,0,0-8.26-5.69c-3.07-1.5-6.14-3-9.24-4.48a20.62,20.62,0,0,0-4.82-2c-2.26-.4-4-2.14-6.33-2.06a.64.64,0,0,1-.41-.11c-2.37-1.82-5.3-2.37-8-3.21-3.35-1-6.69-2.15-10-3.15-2.92-.87-5.88-1.82-8.82-2.56-3.13-.78-6.17-2-9.4-2.39a22.56,22.56,0,0,1-3.3-.74,60.68,60.68,0,0,0-11.67-1.88,1.16,1.16,0,0,1-1.09-.51,11.78,11.78,0,0,1,5.66.14,14.72,14.72,0,0,0,1.65.41,107.08,107.08,0,0,1,13,2.83c1.61.39,3.14,1.15,4.91,1.17,1.1,0,2.23.69,3.4,1,2.38.54,4.68,1.41,7,2.09,2.17.63,4.25,1.63,6.41,2.13,2.41.55,4.66,1.55,7,2.22a78.49,78.49,0,0,1,7.53,2.79c2.87,1.14,5.76,2.22,8.58,3.47,5.48,2.44,10.93,5,15.71,8.66C510.38,180.66,511.43,181.58,512.54,182.42Z" transform="translate(-11.9 -19.43)"></path><path class="cls-2" d="M578,226.07a2.6,2.6,0,0,1-1.72-1.5c-1.12-2.72-2.56-5.29-3.83-7.93a52.33,52.33,0,0,0-3-5.26,26.65,26.65,0,0,0-3.61-4.36A10.34,10.34,0,0,0,561,204a2,2,0,0,1-.61-.19c-2.69-1.74-5.85-1.78-8.81-2.53-2.12-.54-4.4-.09-6.41-1.23-1.4-.8-2.92-1.39-4-2.72-1.24-1.57-3.15-2.34-4.52-3.77-3.47-3.62-7.35-6.84-10.57-10.71.37-.26.66-.07.94.17,1.23,1.07,2.48,2.11,3.67,3.22,2.9,2.71,5.72,5.51,8.66,8.18,1.51,1.38,3.17,2.6,4.8,3.84a10.17,10.17,0,0,0,5.47,2,45,45,0,0,1,7.89,1.44,27.79,27.79,0,0,1,7.72,3.66c2.73,1.77,4.38,4.41,5.93,7.09,1.91,3.29,3.64,6.69,5.26,10.14C577,223.67,578.25,224.55,578,226.07Z" transform="translate(-11.9 -19.43)"></path><path class="cls-2" d="M372.69,104.42a2.72,2.72,0,0,1-1.94-.71c-2-2-4.67-2.81-7.11-4-1.52-.74-3.18-1.16-3.8-3a.78.78,0,0,0-.27-.33c-2-1.5-2.85-3.82-4.22-5.78-2.4-3.42-4.47-7.07-6.77-10.55-2.4-3.65-4.52-7.49-7.13-11-1.49-2-2.66-4.13-4-6.18A23.6,23.6,0,0,1,335,59.15c-.55-1.38-1.33-2.62-1.93-4s-2-2.14-2.46-3.63c-.37-1.21-1.29-2.22-1.22-3.58,1.14.88,1.63,2.22,2.36,3.37,1.65,2.61,3.06,5.36,4.67,8,2.4,3.91,4.78,7.84,7.33,11.64,3.78,5.63,7.22,11.46,11.08,17,1.61,2.32,3.28,4.61,4.82,7s3.94,3.7,6.49,4.84a29.46,29.46,0,0,1,6.47,4C372.7,103.93,372.66,104.22,372.69,104.42Z" transform="translate(-11.9 -19.43)"></path><path class="cls-2" d="M458.9,461.92h-1c-1.44-.07-1.58-.19-1.68-1.57,0-.56,0-1.13,0-1.7a5.18,5.18,0,0,0-.64-3.26,2,2,0,0,1-.19-1,28.74,28.74,0,0,0-.31-4.44,1.38,1.38,0,0,1,1-1.83c.84-.15,1.72-.18,2.12.89.2.53.66,1,.69,1.54.11,2.05,1.13,3.77,2,5.52a24.21,24.21,0,0,1,1.38,4.41c.2.73,0,1-.73,1.18A9.76,9.76,0,0,1,458.9,461.92Z" transform="translate(-11.9 -19.43)"></path><path class="cls-2" d="M53.54,178.86a2,2,0,0,1,1.12-1.49c3.7-1.83,7.22-3.92,11.64-4,4.2-.08,7.82,1.49,11.6,2.78,1.4,1.73,3.48,2.62,5.23,3.85,3.48,2.43,6.17,5.6,9.11,8.53a46,46,0,0,1,5.14,6.59c1.08,1.56,2.26,3.08,3.34,4.65.4.6.86,1.14.66,1.93a1.86,1.86,0,0,1-1.31-1,73.43,73.43,0,0,0-7.7-10.34,71.23,71.23,0,0,0-12.11-11.29,26.28,26.28,0,0,0-6.83-3.73c-4.35-1.46-8.75-1.88-13.14.29a27.77,27.77,0,0,0-5.53,3A1.38,1.38,0,0,1,53.54,178.86Z" transform="translate(-11.9 -19.43)"></path><path class="cls-2" d="M358,105.6a26.19,26.19,0,0,1,5,2,26.84,26.84,0,0,1,5.54,4.55,2.71,2.71,0,0,1,1,1.8,3.92,3.92,0,0,0,.78,1.73,6.84,6.84,0,0,1,1.31,4.36,3.71,3.71,0,0,0,.32,1.65c.51,1.45,1.36,2.72,1.52,4.36.12,1.18,1.27,2.17,2,3.14,1.56,2.06,2.85,4.39,5,6,2.28,1.73,4.52,3.51,7.33,4.38a7.63,7.63,0,0,0,2.32.23,27.17,27.17,0,0,1,8.78,1.26c1.26.43,2.54.93,3.1,2.33-.49.2-.78-.14-1.13-.38a12,12,0,0,0-7.37-2.12,16,16,0,0,1-7.7-1.08,22.88,22.88,0,0,1-8.62-6.66,54.19,54.19,0,0,1-3.79-5.58,18.11,18.11,0,0,1-1.68-4.24c-.89-3-1.24-6.22-2.88-8.94a11.23,11.23,0,0,0-3.56-4.16c-1.9-1.14-3.47-2.87-5.85-3.21A1.51,1.51,0,0,1,358,105.6Z" transform="translate(-11.9 -19.43)"></path><path class="cls-2" d="M592.94,261c1.61.39,1.58,2,2.28,3.11.34.52.65,1.08,1,1.62a.64.64,0,0,0,.72.32.62.62,0,0,0,.47-.63,5.22,5.22,0,0,0,0-1.9c-1.07-2.68-1.38-5.65-3.36-8a16.38,16.38,0,0,1-1.92-3.24c-1.6-3.27-3.68-6.25-5.36-9.46-1-2-2.53-3.66-3.11-5.86a1.32,1.32,0,0,0-.37-.52,17,17,0,0,1-3.41-6.17,7.2,7.2,0,0,0-1.13-1.79,2.56,2.56,0,0,1-.46-2,14,14,0,0,1,2.4,3.6c1.63,3.11,3.42,6.13,5.12,9.19,2,3.51,4,7,6,10.45,1,1.71,1.92,3.44,3,5.06A18.84,18.84,0,0,1,597.5,261a25.48,25.48,0,0,1,.86,6c-.42,0-1-.77-1.21,0s.5.8,1.07.78l.21,0c.77.93.48,2,.48,3-.71.31-1-.25-1.22-.6-1.64-2.86-3.23-5.75-4.82-8.65C592.79,261.43,592.91,261.17,592.94,261Z" transform="translate(-11.9 -19.43)"></path><path class="cls-2" d="M412.39,139.39c-1.83-.58-3.12-2.08-4.87-2.88a36.42,36.42,0,0,0-11.27-3.1c-2.74-.3-5.42-.68-7.82-2.17a9.64,9.64,0,0,1-3.55-3.54,49.08,49.08,0,0,1-3.26-8.44c-.37-1.14-.38-2.32-.82-3.49A26.16,26.16,0,0,0,374,106a3,3,0,0,1-1.14-1.5c2.1.43,3.33,2,4.56,3.56a23.17,23.17,0,0,1,4.41,7.89c.48,1.62.52,3.32,1.16,4.93,1.26,3.14,2.28,6.39,5,8.7a12.42,12.42,0,0,0,6.28,2.69c3,.54,6.16.67,9.15,1.64a47.89,47.89,0,0,1,5.5,2.09,16.71,16.71,0,0,1,3.35,2.56A.72.72,0,0,1,412.39,139.39Z" transform="translate(-11.9 -19.43)"></path><path class="cls-1" d="M418.87,453.75c0,2.12,0,4.23,0,6.35,0,1.11-.51,1.53-1.55,1.47h-.63c-3.28-.11-3.16.59-3-3.3a9.43,9.43,0,0,1,3.67-7.1,1.19,1.19,0,0,1,1.15-.33c.49.15.6.55.61,1v1.91Z" transform="translate(-11.9 -19.43)"></path><path class="cls-2" d="M267.47,49.28a4,4,0,0,1,1.4-2.54,24.11,24.11,0,0,0,4-4.88c.85-1.62,2.79-2.53,4-4s2.7-2.54,3.87-4A13.77,13.77,0,0,1,286.24,30a13.24,13.24,0,0,1,7.64-1.1c2.2.46,4.36,1.11,6.56,1.54a3.65,3.65,0,0,1,1.67.87c1.47,1.35,3.68,1.75,4.7,3.66-1.23.24-2-.68-2.78-1.29a21.29,21.29,0,0,0-7.83-3.39A5.27,5.27,0,0,1,295,30a5.4,5.4,0,0,0-3.54-.44c-3.27.63-6.4,1.58-8.84,4.12-3,3.11-6.09,6.13-9.13,9.2-1.59,1.61-2.68,3.64-4.34,5.2C268.64,48.52,268.26,49.18,267.47,49.28Z" transform="translate(-11.9 -19.43)"></path><path class="cls-2" d="M101.62,202a2.49,2.49,0,0,1,1.6,1.31c1.65,2.79,4,5.05,5.87,7.64,3.18,4.41,7.45,7.7,11,11.73,1.1,1.27,2.89,1.55,3.82,2.93s2.41,1.83,3.78,2.46a3.94,3.94,0,0,0,3.29.21,4.27,4.27,0,0,1,2.1-.14,3.89,3.89,0,0,1-3.75,1.31,13.86,13.86,0,0,1-6.93-3.38c-2.46-2.26-4.94-4.48-7.3-6.83a116.23,116.23,0,0,1-13-15.66A1.84,1.84,0,0,1,101.62,202Z" transform="translate(-11.9 -19.43)"></path><path class="cls-2" d="M333.88,72.26A4.14,4.14,0,0,1,335.4,74c1.35,2.71,3.05,5.23,4.63,7.81,1.35,2.2,2.9,4.28,4.07,6.6a17.57,17.57,0,0,0,2.68,3.5c1.68,1.92,2.91,4.15,4.45,6.15,1.84,2.37,4,4.39,5.94,6.6a4.67,4.67,0,0,1,.42.72c-.71.32-1.21,0-1.68-.51a34.81,34.81,0,0,1-3.05-3.26c-1-1.35-2.22-2.58-3.23-3.92-2.56-3.36-4.91-6.88-7.28-10.38-1.49-2.2-2.88-4.46-4.28-6.73s-2.83-4.67-4.22-7A1.42,1.42,0,0,1,333.88,72.26Z" transform="translate(-11.9 -19.43)"></path><path class="cls-2" d="M133.38,228c.47-1.35,1.68-2.06,2.6-3a28.24,28.24,0,0,0,5-6.45c1.2-2.27,2.53-4.5,3.72-6.8a7.73,7.73,0,0,1,1.87-2,1.68,1.68,0,0,1,2.17-.09c1.09.84,2.39,1.57,2.62,3.15-1.16-.22-1.6-1.32-2.41-2-1.14-.91-1.76-.89-2.62.28-1.52,2-2.32,4.47-3.63,6.63-1.86,3-3.48,6.28-6.26,8.66C135.55,227.12,134.78,228.18,133.38,228Z" transform="translate(-11.9 -19.43)"></path><path class="cls-2" d="M306.92,35.09a2.91,2.91,0,0,1,2.24,1c2.93,3,5.93,5.87,8.82,8.88a40.82,40.82,0,0,1,3.49,4.92c1,1.42,2,2.84,2.92,4.33A7.93,7.93,0,0,1,326,57.78c-.83-.14-1.08-.89-1.41-1.46a69.09,69.09,0,0,0-5.06-7.74,56.75,56.75,0,0,0-10.21-11C308.38,36.94,307.22,36.37,306.92,35.09Z" transform="translate(-11.9 -19.43)"></path><path class="cls-2" d="M578,235.77a1.81,1.81,0,0,1,1.17.86c1.62,2.51,3.24,5.06,4.67,7.65,1.72,3.09,3.48,6.19,5.28,9.23,1.1,1.86,2.08,3.78,3.11,5.67a2.59,2.59,0,0,1,.48,1.39,1,1,0,0,1-.89-.5c-1.3-2.24-2.57-4.51-3.89-6.73-1.76-3-3.56-5.87-5.33-8.81-1.51-2.51-2.83-5.13-4.48-7.55A1.2,1.2,0,0,1,578,235.77Z" transform="translate(-11.9 -19.43)"></path><path class="cls-2" d="M113.57,204.29a7.32,7.32,0,0,1-3.29-3.44,2.51,2.51,0,0,0-.74-1c-2.12-1.62-3.42-4-5-6-2-2.7-4.33-5.15-6.28-7.89a3.05,3.05,0,0,1-.76-2.16,1.49,1.49,0,0,1,1.22.76c2.46,3.64,5.49,6.84,8,10.43,1.63,2.3,3.5,4.43,5.27,6.63A5.27,5.27,0,0,1,113.57,204.29Z" transform="translate(-11.9 -19.43)"></path><path class="cls-2" d="M132.21,217.77a5.63,5.63,0,0,1-5.64,1.61,9.59,9.59,0,0,1-5-4,20.22,20.22,0,0,0-3.26-4.09,2.14,2.14,0,0,1-.68-.78,9.63,9.63,0,0,0-2.51-3.36,2.11,2.11,0,0,1-.91-2,5.18,5.18,0,0,1,2.53,2.42c.74,1.12,1.68,2.08,2.51,3.11,1.45,1.8,3.06,3.5,4.36,5.37a6.05,6.05,0,0,0,8,1.78C131.75,217.68,132,217.76,132.21,217.77Z" transform="translate(-11.9 -19.43)"></path><path class="cls-2" d="M153,214.5a2.57,2.57,0,0,1,2,.44c3.45,2.63,6.87,2.4,9.32-1,1.33-1.82,2.89-3.55,3.7-5.77a7.11,7.11,0,0,1,2.41-3.63,4.65,4.65,0,0,1,.74-.37c0,.2.08.47,0,.61-1.92,2.53-2.93,5.61-4.78,8.15-1.39,1.92-3,3.76-5.45,4.51a3.08,3.08,0,0,1-.8.25C157.3,217.68,154.72,217.08,153,214.5Z" transform="translate(-11.9 -19.43)"></path><path class="cls-2" d="M250.4,71.91a1.59,1.59,0,0,1,.32-1.4c2.09-2,3.36-4.63,4.94-7s3.71-4.38,5.16-6.88A3.76,3.76,0,0,1,263,54.76,3.06,3.06,0,0,1,261.94,57c-2,2.32-3.7,4.94-5.54,7.42-1.64,2.2-3.21,4.46-4.83,6.68A1.53,1.53,0,0,1,250.4,71.91Z" transform="translate(-11.9 -19.43)"></path><path class="cls-2" d="M239.19,89.62A13.93,13.93,0,0,1,241,85.51c1.19-2.09,2.6-4,3.81-6.09s2.73-4.21,4.13-6.3a1.91,1.91,0,0,1,1.18-.87,1.31,1.31,0,0,1-.13,1.22c-3.68,4.9-6.69,10.22-9.92,15.4C239.88,89.22,239.73,89.65,239.19,89.62Z" transform="translate(-11.9 -19.43)"></path><path class="cls-2" d="M86,171.36a2,2,0,0,1-1.72-.63c-1.58-1.7-3.7-2.46-5.8-3.24-.92-.34-1.71-.92-2.65-1.26-2.7-1-5.54-.86-8.29-1.36.62-.9,1.56-.66,2.33-.47a8.52,8.52,0,0,0,3.16.27c1.32-.18,2.29.64,3.43,1a31,31,0,0,1,8.14,4A2.49,2.49,0,0,1,86,171.36Z" transform="translate(-11.9 -19.43)"></path><path class="cls-2" d="M567.73,220.81a5.94,5.94,0,0,1,3,2.88c1.67,2.93,3.95,5.45,5.52,8.43.47.88,1.35,1.67,1.14,2.85-1.21-.52-1.56-1.8-2.2-2.74a116.75,116.75,0,0,0-7-9.86A1.72,1.72,0,0,1,567.73,220.81Z" transform="translate(-11.9 -19.43)"></path><path class="cls-2" d="M172.63,202.71c1.12-1.94,3.13-2.5,5-3.18,2.54-.92,5.28-.74,7.9-1.27,1.49-.29,2.86-1.17,4.46-.95,0,.53-.37.74-.79.86-1.35.39-2.64,1.23-4,1.13-2.52-.19-4.88.57-7.3,1a10,10,0,0,0-3.21,1.51C174,202.15,173.54,202.92,172.63,202.71Z" transform="translate(-11.9 -19.43)"></path><path class="cls-2" d="M326.22,58.16c1.66.62,2,2.29,2.67,3.61.95,1.78,1.7,3.65,2.6,5.46.58,1.16,1.27,2.28,1.91,3.41a2.1,2.1,0,0,1,.23,1.23c-.9,0-1.1-.82-1.41-1.41-1.65-3.15-3.33-6.3-4.86-9.52C326.94,60.05,325.7,59.44,326.22,58.16Z" transform="translate(-11.9 -19.43)"></path><path class="cls-2" d="M419,151.73c-1.89-.39-2.51-1-2.55-2.68a11.67,11.67,0,0,0-2.84-7.18,2,2,0,0,1-.53-1.72c2.11.73,2.37,2.84,3.21,4.47a6.45,6.45,0,0,1,.94,3.88,2,2,0,0,0,.72,1.69C418.37,150.64,419,151,419,151.73Z" transform="translate(-11.9 -19.43)"></path><path class="cls-2" d="M232.93,101.41a2.53,2.53,0,0,1,.25-1.82c1.74-2.68,2.69-5.77,4.41-8.47a2.79,2.79,0,0,1,1.49-1.38,1.85,1.85,0,0,1-.2,1.41c-1.82,3.31-3.62,6.63-5.44,9.93C233.36,101.24,233.1,101.31,232.93,101.41Z" transform="translate(-11.9 -19.43)"></path><path class="cls-2" d="M246.13,62.09c0,1.77-1.47,2.81-2.18,4.24-1,1.93-2.57,3.46-3.55,5.41a2,2,0,0,1-1.27,1.06,1.42,1.42,0,0,1,.19-1.39c1.94-2.72,3.81-5.49,5.48-8.38A1.69,1.69,0,0,1,246.13,62.09Z" transform="translate(-11.9 -19.43)"></path><path class="cls-2" d="M44.63,186.73a2.6,2.6,0,0,1,1-2.45c1.27-.94,2.14-2.37,3.8-2.86.67-.2,1.2-1,1.74-1.51a2,2,0,0,1,2.05-.82c-.25.91-1.06,1.25-1.72,1.77a44.27,44.27,0,0,0-5.06,4.52C46,185.93,45.5,186.63,44.63,186.73Z" transform="translate(-11.9 -19.43)"></path><path class="cls-2" d="M93.06,178.25a6.81,6.81,0,0,1-2.52-2.18c-1.4-1.47-3.1-2.66-4.14-4.46.21,0,.46-.09.61,0a25,25,0,0,1,5.78,5.47A1.08,1.08,0,0,1,93.06,178.25Z" transform="translate(-11.9 -19.43)"></path><path class="cls-2" d="M524.76,182.75a85.55,85.55,0,0,1-10.5,0c-.17,0-.33-.23-.49-.35.4-.41.91-.32,1.4-.31l8.32.11C524,182.25,524.52,182.13,524.76,182.75Z" transform="translate(-11.9 -19.43)"></path><path class="cls-2" d="M329.09,47.61a15.57,15.57,0,0,1-4.53-7.1.9.9,0,0,1,.86.5c1.26,1.92,2.51,3.84,3.72,5.79C329.26,47,329.11,47.34,329.09,47.61Z" transform="translate(-11.9 -19.43)"></path><path class="cls-2" d="M250.8,55.65c0,.21.1.49,0,.62-1.38,1.89-2.18,4.25-4.41,5.44,0-.07-.08-.16-.05-.2C247.55,59.34,248.38,56.89,250.8,55.65Z" transform="translate(-11.9 -19.43)"></path><path class="cls-2" d="M426.26,153c-1,.84-2.2.51-3.25.38-1.27-.17-2.67-.3-3.63-1.4.13,0,.28-.14.39-.11C421.9,152.44,424.1,152.61,426.26,153Z" transform="translate(-11.9 -19.43)"></path><path class="cls-2" d="M96.84,183c-1.2-.55-1.89-1.67-2.8-2.54a1.54,1.54,0,0,1-.3-1.39A5.67,5.67,0,0,1,96.84,183Z" transform="translate(-11.9 -19.43)"></path><path class="cls-2" d="M263.63,54c.3-1.92,1.7-2.95,3.17-3.92A5.73,5.73,0,0,1,263.63,54Z" transform="translate(-11.9 -19.43)"></path><path class="cls-1" d="M598.43,267.79l-.21,0c-.57,0-1.32.05-1.07-.78s.79,0,1.21,0A.7.7,0,0,1,598.43,267.79Z" transform="translate(-11.9 -19.43)"></path><path class="cls-2" d="M151.35,212.77a1.16,1.16,0,0,1,1.26,1.31A1.42,1.42,0,0,1,151.35,212.77Z" transform="translate(-11.9 -19.43)"></path><path class="cls-1" d="M12.63,387.53q0-34.78,0-69.58a7,7,0,0,1,.66-3.91c.53-.87.18-2.06.49-3.12a47.76,47.76,0,0,1,1.43-4.83,3.53,3.53,0,0,1,.21-.6,41.27,41.27,0,0,1,7.79-8.62c2.12-1.68,4.72-2.68,7.13-3.94a23.75,23.75,0,0,1,7.31-2.69c2.42-.36,4.85-.85,7.27-1.21a95.16,95.16,0,0,1,12.94-.66c2.27,0,4.5.54,6.74.66a54.44,54.44,0,0,1,6,1.13c1.38.23,2.8.8,4.19,1.18,2.42.66,4.4,2.11,6.62,3.11a6.1,6.1,0,0,0,5.69-.14A40.75,40.75,0,0,1,96,290.65a67.44,67.44,0,0,1,8.27-1.59,95.08,95.08,0,0,1,13.37-.69,21.74,21.74,0,0,1,3.59.3c1.73.27,3.49.49,5.26.6a29.25,29.25,0,0,1,5.55,1.19,34.73,34.73,0,0,1,7.66,2.94,24.65,24.65,0,0,1,7.16,5.19,25.88,25.88,0,0,0,2.56,2.57c3.29,2.84,4.43,6.66,5.36,10.73,1.06,4.65.8,9.31.8,14q0,65.85,0,131.69c0,3.25,0,3.25-3.28,3.25H133.56c-1,0-1.41-.54-1.4-1.49,0-.5,0-1,0-1.49q0-68.62,0-137.24a10.41,10.41,0,0,0-3.18-7.34,10.71,10.71,0,0,0-5.63-2.64,42.44,42.44,0,0,0-6.87-1.13,50.27,50.27,0,0,0-5.49,0,56.23,56.23,0,0,0-6.87,1.13,6.72,6.72,0,0,0-4.1,1.95,5.89,5.89,0,0,1-.9.9c-2.14,1.59-2.4,4-2.87,6.35-.69,3.44-.39,6.94-.39,10.41q0,63.81,0,127.64c0,3.24.34,2.95-3,2.95H75.16c-2.06,0-2.46-.34-2.73-2.38a15.23,15.23,0,0,1-.05-2.14V322.46a25.8,25.8,0,0,0-.11-3.41c-.5-3.88-3.14-6-6.43-7.47a25.21,25.21,0,0,0-7.87-2,32.52,32.52,0,0,0-11.76.91c-1,.27-2.06-.1-3.1.49-4.18,2.37-6.64,5.61-6.63,10.69q.08,67.77.05,135.54c0,3.4-.42,3.67-3.58,3.64-5.9-.07-11.81,0-17.71,0-2.59,0-2.61,0-2.61-2.63Q12.61,422.86,12.63,387.53Z" transform="translate(-11.9 -19.43)"></path></svg>